<?xml version="1.0" encoding="UTF-8"?> <svg xmlns="http://www.w3.org/2000/svg" xmlns:xlink="http://www.w3.org/1999/xlink" width="500px" height="500px" viewBox="0 0 500 500"> <title>Group 3</title> <g id="Page-1" stroke="none" stroke-width="1" fill="none" fill-rule="evenodd"> <g id="Group-3"> <circle id="Oval-Copy" fill="#4361EE" cx="250" cy="250" r="250"></circle> <g id="Group-2" transform="translate(122.000000, 108.000000)" fill="#FFFFFF" fill-rule="nonzero"> <path d="M78.3984,58.2379 L70,58.2379 C31.359,58.2379 0,89.5969 0,128.2379 C0,166.3159 34.16,191.5189 35.281,192.6359 C36.9607,193.757 38.0818,195.4367 38.0818,196.5578 L38.0818,243.0378 C38.0818,256.4788 48.7228,266.5578 61.6018,267.6788 C64.4026,270.4796 67.2034,272.1593 71.1213,273.2804 L76.7229,273.2804 C79.5237,272.1593 82.3245,270.4796 84.5627,268.7999 C98.0037,268.7999 108.0827,257.6009 108.0827,244.1589 L108.078794,197.6789 C108.078794,196.5578 109.758494,194.8781 112.000694,193.757 C113.680394,192.6359 147.281694,167.437 147.281694,129.359 C148.398894,89.601 115.918694,58.2379 78.398694,58.2379 L78.3984,58.2379 Z M47.0394,175.8379 C47.0394,175.8379 20.7194,155.1189 20.7194,127.6779 C20.7194,100.2369 42.5594,78.3969 70.0004,78.3969 L78.3988,78.3969 C105.8398,78.3969 127.6798,100.2369 127.6798,127.6779 C127.6798,153.9979 104.1598,173.0369 101.3598,175.2799 C99.6801,176.401 89.0398,183.6783 89.0398,195.4399 L89.0398,208.8779 L58.8018,208.8779 L58.8018,194.8779 C58.2393,183.1199 47.0398,175.8389 47.0398,175.8389 L47.0394,175.8379 Z M89.5984,230.7169 L89.5984,243.0369 C89.5984,244.7166 87.9187,246.9588 85.6765,246.9588 L62.7155,246.9588 C61.0358,246.9588 58.7936,245.2791 58.7936,243.0369 L58.7936,230.7169 L89.5984,230.7169 Z" id="Shape"></path> <path d="M73.3584,145.0379 L85.6784,151.7567 C86.7995,151.7567 87.3581,152.8778 88.4792,152.8778 C89.6003,152.8778 91.28,152.8778 92.4011,151.7567 C94.0808,150.6356 95.2019,147.8348 95.2019,146.1551 L92.4011,132.1551 L102.4791,122.6356 C104.1588,120.9559 104.1588,118.7137 104.1588,115.9168 C103.0377,114.2371 101.358,111.9949 99.6783,111.9949 L85.6783,110.3152 L78.9595,97.9952 C77.8384,96.3155 76.1587,95.1944 73.3579,95.1944 C70.5571,95.1944 68.8774,96.3155 67.7563,97.9952 L61.0375,110.3152 L47.5965,112.5574 C45.9168,112.5574 43.116,114.2371 43.116,116.4793 C41.9949,118.159 43.116,120.9598 44.7957,123.1981 L54.8737,132.7176 L52.0729,146.7176 C52.0729,148.3973 53.194,151.1981 54.8737,152.3192 C56.5534,153.4403 59.3542,153.9989 61.5925,153.4403 L73.3584,145.0379 Z" id="Path"></path> <path d="M206.6384,43.6775 L176.4004,43.6775 C172.4785,43.6775 168.5606,47.5998 168.5606,51.5177 L167.4395,82.8767 C167.4395,85.115 167.99809,87.3572 169.6778,89.0369 C171.3575,90.7166 173.0372,91.8377 175.2794,91.8377 C177.5177,91.8377 179.2013,90.7166 181.4396,89.5994 C183.1193,87.9197 184.2404,86.24 184.2404,83.9978 L184.79899,71.1188 L188.15839,74.4782 C206.63839,92.9582 206.63839,122.0802 188.15839,139.9982 L171.92039,156.2362 C148.95939,179.1972 147.27939,216.7162 167.99849,241.3572 C162.39689,251.9982 164.63909,264.8772 172.47899,273.2792 C183.11999,283.9202 200.47899,283.9202 211.11999,273.2792 C221.76099,262.6382 221.76099,245.2792 211.11999,234.6382 C203.28019,226.7984 190.40099,223.9972 179.76099,229.5991 C165.20199,211.1191 166.88199,184.7981 183.12039,168.5601 L199.35839,152.3221 C223.99939,127.6811 223.43639,87.3611 199.35839,63.2831 L196.55759,60.4823 L206.63559,60.4823 C208.87389,60.4823 210.55749,59.3612 212.23719,57.6815 C213.91689,56.0018 215.03799,54.3221 215.03799,52.0799 C215.03799,49.8416 213.91689,48.158 212.23719,46.4783 C210.56139,44.7986 208.32309,43.6775 206.63949,43.6775 L206.6384,43.6775 Z M198.7986,261.5179 C194.8767,265.4398 187.5996,265.4398 183.6776,261.5179 C179.7556,257.596 179.7557,250.3189 183.6776,246.3969 C187.5995,242.4749 194.8766,242.475 198.7986,246.3969 C203.2791,250.8774 203.2791,257.5999 198.7986,261.5179 Z" id="Shape"></path> <path d="M256.4784,174.7179 C256.4784,172.4796 255.91981,170.2374 254.2401,169.1163 C252.5604,167.4366 250.8807,166.878 248.6385,166.878 C246.4002,166.878 244.158,167.43659 243.0369,169.1163 L232.9589,179.1943 L222.8809,169.1163 C221.2012,167.4366 219.5215,166.878 217.2793,166.878 C215.041,166.878 212.7988,167.43659 211.6777,169.1163 C209.998,170.796 209.4394,172.4757 209.4394,174.7179 C209.4394,176.9562 209.99799,179.1984 212.2402,180.3195 L222.3182,189.839 L212.2402,199.3585 C210.5605,201.0382 210.0019,202.7179 209.4394,204.9601 C209.4394,207.1984 209.99799,209.4406 211.6777,210.5617 C213.3574,212.2414 215.0371,212.8 217.2793,212.8 C219.5176,212.8 221.7598,212.24141 222.8809,210.5617 L233.5219,200.4837 L243.5999,210.5617 C245.2796,212.2414 246.9593,212.8 249.2015,212.8 C251.4398,212.8 253.682,212.24141 254.8031,210.5617 C257.6039,207.2023 257.6039,202.1633 254.8031,199.3627 L244.7251,189.8432 L254.8031,180.3237 C255.9203,179.1987 256.4789,177.519 256.4789,174.7182 L256.4784,174.7179 Z" id="Path"></path> <path d="M103.0384,38.0779 C103.0384,40.3162 103.59699,42.5584 105.2767,43.6795 C106.9564,44.8006 108.6361,45.9178 110.8783,45.9178 C113.1166,45.9178 115.3588,45.35921 116.4799,43.6795 L127.1209,33.6015 L137.1989,43.6795 C138.8786,45.3592 140.5583,45.9178 142.8005,45.9178 C145.0388,45.9178 147.281,45.35921 148.4021,43.6795 C150.0818,41.9998 150.6404,40.3201 150.6404,38.0779 C150.6404,35.8396 150.08181,33.5974 147.8396,32.4763 L137.7616,22.9568 L147.8396,13.4373 C151.199,10.6365 151.199,5.0389 147.8396,2.2383 C146.1599,0.5586 144.4802,0 142.238,0 C139.9997,0 137.7575,0.55859 136.6364,2.2383 L126.5584,12.3163 L116.4804,2.2383 C114.8007,0.5586 113.121,0 110.8788,0 C108.6405,0 106.3983,0.55859 105.2772,2.2383 C103.5975,3.918 103.0389,5.5977 103.0389,7.8399 C103.0389,10.0782 103.59749,12.3204 105.8397,13.4415 L115.9177,22.961 L105.8397,32.4805 C104.16,34.1602 103.0389,36.3985 103.0389,38.0782 L103.0384,38.0779 Z" id="Path"></path> </g> </g> </g> </svg> 