<?xml version="1.0" encoding="UTF-8"?> <svg xmlns="http://www.w3.org/2000/svg" xmlns:xlink="http://www.w3.org/1999/xlink" width="500px" height="500px" viewBox="0 0 500 500"> <title>Group 11</title> <g id="Page-1" stroke="none" stroke-width="1" fill="none" fill-rule="evenodd"> <g id="Group-11"> <circle id="Oval-Copy-5" fill="#4361EE" cx="250" cy="250" r="250"></circle> <g id="Group-10" transform="translate(135.000000, 122.000000)" fill="#FFFFFF" fill-rule="nonzero"> <path d="M266.552144,243.245779 L247.901773,224.568904 C253.816023,216.371284 256.998307,205.892029 256.998307,194.962141 C256.998307,166.263964 233.800888,143.033579 205.143437,143.033579 C176.485986,143.033579 153.288567,166.263964 153.288567,194.962141 C153.288567,223.660317 176.485986,246.890702 205.143437,246.890702 C217.425666,246.890702 228.797348,242.334264 237.893881,235.50286 L256.086948,253.721781 C257.451306,255.088078 259.272562,256 261.54438,256 C263.819366,256 265.183725,255.088078 267.001813,253.721781 C269.736865,250.534812 269.736865,245.978455 266.551259,243.245779 L266.552144,243.245779 Z M168.300812,195.416027 C168.300812,174.918724 185.130089,158.062277 205.601553,158.062277 C226.069768,158.062277 242.902295,174.915471 242.902295,195.416027 C242.902295,215.91333 226.073018,232.769777 205.601553,232.769777 C185.133338,232.31223 168.300812,215.459444 168.300812,195.416027 L168.300812,195.416027 Z" id="Shape"></path> <path d="M53.2193904,235.502046 L7.27860749,235.502046 C3.18553302,235.502046 0,232.311905 0,228.213095 L0,107.501965 C0,103.403074 3.18561425,100.213014 7.27860749,100.213014 L53.2193904,100.213014 C57.3124648,100.213014 60.4979979,103.403155 60.4979979,107.501965 L60.4979979,228.213095 C60.4979979,232.311986 57.3155514,235.502046 53.2193904,235.502046 L53.2193904,235.502046 Z M14.5572962,221.381935 L46.3971935,221.381935 L46.3971935,114.79173 L14.5572962,114.79173 L14.5572962,221.381935 Z" id="Shape"></path> <path d="M125.998155,235.502046 L79.6008803,235.502046 C75.5078058,235.502046 72.3222728,232.311905 72.3222728,228.213095 L72.3222728,7.28895125 C72.3222728,3.19006004 75.507887,0 79.6008803,0 L125.541663,0 C129.634738,0 132.820271,3.19014138 132.820271,7.28895125 L132.820271,228.213095 C133.277169,232.311986 129.637824,235.502046 125.998561,235.502046 L125.998155,235.502046 Z M86.879569,221.381935 L118.719466,221.381935 L118.719466,14.5787159 L86.879569,14.5787159 L86.879569,221.381935 Z" id="Shape"></path> <path d="M151.470723,150.320985 C147.377648,150.320985 144.192115,147.130843 144.192115,143.032033 L144.192115,74.7049786 C144.192115,70.6060874 147.377729,67.4160274 151.470723,67.4160274 L196.95745,67.4160274 C201.050525,67.4160274 204.236058,70.6061688 204.236058,74.7049786 L204.236058,118.889807 C204.236058,122.988699 201.050444,126.178759 196.95745,126.178759 C192.864376,126.178759 189.678843,122.988617 189.678843,118.889807 L189.678843,81.9940112 L158.292188,81.9940112 L158.292188,143.032033 C158.292188,147.134097 155.109742,150.320985 151.470479,150.320985 L151.470723,150.320985 Z" id="Path"></path> </g> </g> </g> </svg> 