<?xml version="1.0" encoding="UTF-8"?> <svg xmlns="http://www.w3.org/2000/svg" xmlns:xlink="http://www.w3.org/1999/xlink" width="500px" height="500px" viewBox="0 0 500 500"> <title>Group 9</title> <g id="Page-1" stroke="none" stroke-width="1" fill="none" fill-rule="evenodd"> <g id="Group-9"> <circle id="Oval-Copy-4" fill="#4361EE" cx="250" cy="250" r="250"></circle> <g id="Group-8" transform="translate(139.000000, 116.000000)" fill="#FFFFFF" fill-rule="nonzero"> <path d="M84.0579935,127.388209 C80.7131339,124.049937 74.5067345,124.049937 71.1617896,127.388209 C69.2528171,129.293421 68.2966677,131.201954 68.2966677,133.585874 C68.2966677,135.969879 69.2528171,138.353885 71.1617896,139.783539 L95.0420693,163.616785 C96.9510418,165.521998 99.339752,166.00079 101.251965,166.00079 C103.640676,166.00079 106.029386,165.046524 107.461862,163.616785 L151.401576,119.763613 C153.310549,117.8584 154.266698,115.949868 154.266698,113.565948 C154.266698,111.182027 153.310549,108.797937 151.401576,107.368282 C148.056717,104.030011 141.850317,104.030011 138.505372,107.368282 L101.252136,144.548146 L84.0579935,127.388209 Z" id="Path"></path> <path d="M216.354743,45.4018436 C215.398594,45.4018436 199.160942,42.5423648 178.625607,35.8693965 C159.998989,29.6717312 134.209992,19.1844221 117.968843,2.50370374 C114.623984,-0.834567912 108.893484,-0.834567912 105.551951,2.50370374 C89.3142136,18.7094596 63.5218058,29.6753062 44.8951876,35.8693965 C23.8796887,42.542535 7.16605147,45.4018436 7.16605147,45.4018436 C2.86836871,45.8773083 0.00333215188,49.6910617 0.00333215188,53.9801096 L0,161.229715 L0,162.659455 C0.476403051,165.04346 11.9401398,219.38343 107.938864,267.049071 C108.415267,267.049071 108.415267,267.524535 108.895014,267.524535 L109.371417,267.524535 C110.327566,267.524535 110.803978,268 111.760127,268 C112.23653,268 113.192688,268 114.148837,267.524535 C114.148837,267.524535 114.62524,267.524535 115.104986,267.049071 C115.58139,267.049071 115.58139,267.049071 116.061136,266.573606 C212.537466,218.907114 223.522394,164.567314 224,162.18399 L224,160.75425 L223.996668,53.9813098 C223.520265,49.6920916 220.655134,45.8784319 216.357537,45.399639 L216.354743,45.4018436 Z M206.32332,61.1317857 L206.32332,160.278088 C204.890759,166.475753 190.562335,209.374574 111.757412,249.891091 C33.4300948,209.85209 18.6243214,166.474732 17.1915046,160.754753 L17.1915046,61.1317857 C33.9094061,57.7935141 81.6699655,46.3560246 111.757412,20.6135657 C141.847417,46.3551734 189.607977,57.7968337 206.32332,61.1317857 Z" id="Shape"></path> </g> </g> </g> </svg> 