<?xml version="1.0" encoding="UTF-8"?> <svg xmlns="http://www.w3.org/2000/svg" xmlns:xlink="http://www.w3.org/1999/xlink" width="500px" height="500px" viewBox="0 0 500 500"> <title>Group 14</title> <g id="Page-1" stroke="none" stroke-width="1" fill="none" fill-rule="evenodd"> <g id="Group-14"> <circle id="Oval" fill="#4361EE" cx="250" cy="250" r="250"></circle> <path d="M357.083,169.16059 L311.724,169.16059 L311.724,168.602 C311.724,150.122 296.603,135 278.122,135 L223.243,135 C204.763,135 189.641,150.121 189.641,168.602 L189.641,169.16059 L144.84,169.16059 C133.078,169.16059 123,178.68009 123,191.00059 L123,341.64059 C123,353.40259 132.5195,363.48059 144.84,363.48059 L357.08,363.48059 C368.842,363.48059 378.92,353.96109 378.92,341.64059 L378.923907,191.00059 C378.923907,179.24259 368.841907,169.16059 357.083907,169.16059 L357.083,169.16059 Z M205.883,169.16059 C205.883,159.64109 213.7228,151.80159 223.242,151.80159 L278.121,151.80159 C287.6405,151.80159 295.48,159.64139 295.48,169.16059 L295.48,169.71918 L205.883,169.16059 Z M275.883,288.44059 L275.883,263.79959 L326.281,264.35818 L363.242,239.71718 L363.242,341.63718 C363.242,344.99658 360.4412,347.23878 357.6404,347.23878 L144.8404,347.23878 C141.481,347.23878 139.2388,344.43798 139.2388,341.63718 L139.242706,239.15718 L170.601706,262.67718 L223.242706,263.23577 L223.242706,288.43477 L275.883,288.44059 Z M175.643,246.99959 L138.682,219.55859 L138.682,190.99959 C138.682,187.64019 141.4828,185.39799 144.2836,185.39799 L356.5236,185.39799 C359.883,185.39799 362.1252,188.19879 362.1252,190.99959 L362.1252,220.12059 L320.1252,248.12059 L175.643,246.99959 Z M259.643,264.36259 L259.643,272.76099 L238.924,272.76099 L238.924,264.36259 L259.643,264.36259 Z" id="Shape" fill="#FFFFFF" fill-rule="nonzero"></path> </g> </g> </svg> 