<?xml version="1.0" encoding="UTF-8"?> <svg xmlns="http://www.w3.org/2000/svg" xmlns:xlink="http://www.w3.org/1999/xlink" width="160px" height="26px" viewBox="0 0 160 26"> <title>Group</title> <defs> <path d="M1.085,4.05276 L4.548,0.35242 C4.684,0.21397 4.819,0.15103 4.979,0.15103 L5.743,0.15103 C5.904,0.15103 5.953,0.30207 5.842,0.41535 L2.231,4.27936 L6.421,8.68456 C6.532,8.79786 6.483,8.96146 6.323,8.96146 L5.472,8.96146 C5.312,8.96146 5.177,8.89856 5.041,8.76006 L1.085,4.50596 L1.085,8.72236 C1.085,8.83566 0.999,8.96146 0.851,8.96146 L0.235,8.96146 C0.124,8.96146 -7.10542736e-15,8.83566 -7.10542736e-15,8.72236 L-7.10542736e-15,0.39017 C-7.10542736e-15,0.25172 0.124,0.15103 0.235,0.15103 L0.851,0.15103 C0.999,0.15103 1.085,0.25172 1.085,0.39017 L1.085,4.05276 Z M10.156,8.76006 L11.277,6.33096 L8.27,0.365 C8.221,0.22655 8.27,0.15103 8.405,0.15103 L9.194,0.15103 C9.293,0.15103 9.367,0.20138 9.404,0.30207 L11.807,5.16036 L14.038,0.32724 C14.087,0.21397 14.186,0.15103 14.272,0.15103 L15.061,0.15103 C15.196,0.15103 15.245,0.21397 15.196,0.35242 L11.302,8.79786 C11.265,8.91116 11.191,8.96146 11.08,8.96146 L10.291,8.96146 C10.18,8.96146 10.094,8.87336 10.156,8.76006 Z M23.959,2.89486 C23.959,4.65696 22.677,5.63866 20.742,5.63866 L19.152,5.63866 L19.152,8.72236 C19.152,8.83566 19.054,8.96146 18.918,8.96146 L18.302,8.96146 C18.166,8.96146 18.068,8.83566 18.068,8.72236 L18.068,0.39017 C18.068,0.25172 18.166,0.15103 18.302,0.15103 L20.742,0.15103 C22.677,0.15103 23.959,1.13277 23.959,2.89486 Z M22.849,2.89486 C22.849,1.68657 22.147,1.13277 20.656,1.13277 L19.152,1.13277 L19.152,4.65696 L20.656,4.65696 C22.147,4.65696 22.849,4.10316 22.849,2.89486 Z M32.549,7.79096 C32.746,7.70286 32.894,7.75316 32.906,7.96716 L32.955,8.53356 C32.968,8.67196 32.918,8.76006 32.783,8.81046 C32.241,9.04956 31.587,9.11256 30.983,9.11256 C28.26,9.11256 26.485,7.26236 26.485,4.55626 C26.485,1.90054 28.247,0 30.922,0 C31.624,0 32.204,0.0881 32.746,0.28948 C32.881,0.33983 32.931,0.42793 32.918,0.56638 L32.844,1.13277 C32.832,1.34674 32.721,1.40967 32.512,1.30898 C32.056,1.09501 31.538,1.00691 30.996,1.00691 C28.851,1.00691 27.594,2.50468 27.594,4.55626 C27.594,6.72116 28.913,8.10566 31.033,8.10566 C31.55,8.10566 32.056,8.00496 32.549,7.79096 Z M36.221,0.15103 L36.837,0.15103 C36.973,0.15103 37.072,0.25172 37.072,0.39017 L37.072,3.42346 L38.661,3.42346 C40.436,3.42346 41.57,4.54366 41.57,6.19246 C41.57,7.84126 40.436,8.96146 38.661,8.96146 L36.221,8.96146 C36.11,8.96146 35.987,8.83566 35.987,8.72236 L35.987,0.39017 C35.987,0.25172 36.11,0.15103 36.221,0.15103 Z M40.461,6.19246 C40.461,5.09746 39.845,4.40526 38.526,4.40526 L37.072,4.40526 L37.072,7.97976 L38.526,7.97976 C39.845,7.97976 40.461,7.30006 40.461,6.19246 Z M42.889,0.15103 L43.505,0.15103 C43.653,0.15103 43.739,0.25172 43.739,0.39017 L43.739,8.72236 C43.739,8.83566 43.653,8.96146 43.505,8.96146 L42.889,8.96146 C42.778,8.96146 42.654,8.83566 42.654,8.72236 L42.654,0.39017 C42.654,0.25172 42.778,0.15103 42.889,0.15103 Z" id="path-1"></path> <path d="M1.085,8.72236 C1.085,8.83566 0.999,8.96146 0.851,8.96146 L0.235,8.96146 C0.124,8.96146 -7.10542736e-15,8.83566 -7.10542736e-15,8.72236 L-7.10542736e-15,0.39017 C-7.10542736e-15,0.25172 0.124,0.15103 0.235,0.15103 L0.851,0.15103 C0.999,0.15103 1.085,0.25172 1.085,0.39017 L1.085,4.05276 L4.548,0.35242 C4.664,0.2341 4.78,0.17094 4.911,0.15507 C4.933,0.15236 4.956,0.15103 4.979,0.15103 L5.743,0.15103 C5.904,0.15103 5.953,0.30207 5.842,0.41535 L2.231,4.27936 L6.421,8.68456 C6.532,8.79786 6.483,8.96146 6.323,8.96146 L5.472,8.96146 C5.399,8.96146 5.331,8.94836 5.266,8.92096 C5.188,8.88826 5.115,8.83536 5.041,8.76006 L1.085,4.50596 L1.085,8.72236 Z M11.125,8.95836 C11.141,8.95596 11.156,8.95226 11.171,8.94726 C11.232,8.92516 11.276,8.87676 11.302,8.79786 L15.196,0.35242 C15.245,0.21397 15.196,0.15103 15.061,0.15103 L14.272,0.15103 C14.255,0.15103 14.239,0.1533 14.222,0.15775 C14.207,0.16173 14.192,0.16746 14.177,0.17488 C14.121,0.20283 14.069,0.25471 14.038,0.32724 L11.807,5.16036 L9.404,0.30207 C9.38,0.23831 9.342,0.19473 9.292,0.17135 C9.277,0.16408 9.26,0.15877 9.242,0.1554 C9.227,0.15249 9.211,0.15103 9.194,0.15103 L8.405,0.15103 C8.27,0.15103 8.221,0.22655 8.27,0.365 L11.277,6.33096 L10.156,8.76006 C10.094,8.87336 10.18,8.96146 10.291,8.96146 L11.08,8.96146 C11.096,8.96146 11.111,8.96046 11.125,8.95836 Z M19.152,4.65696 L20.656,4.65696 C20.685,4.65696 20.714,4.65676 20.742,4.65636 C21.288,4.64826 21.725,4.56236 22.055,4.39346 C22.591,4.11966 22.849,3.62756 22.849,2.89486 C22.849,2.16215 22.591,1.67011 22.055,1.39629 C21.725,1.22736 21.288,1.14149 20.742,1.1334 C20.714,1.13298 20.685,1.13277 20.656,1.13277 L19.152,1.13277 L19.152,4.65696 Z M18.152,0.20201 C18.192,0.1697 18.243,0.15103 18.302,0.15103 L20.742,0.15103 C21.411,0.15103 22.003,0.26851 22.489,0.49513 C23.41,0.92362 23.959,1.74232 23.959,2.89486 C23.959,4.04736 23.41,4.86606 22.489,5.29456 C22.003,5.52126 21.411,5.63866 20.742,5.63866 L19.152,5.63866 L19.152,8.72236 C19.152,8.83566 19.054,8.96146 18.918,8.96146 L18.302,8.96146 C18.166,8.96146 18.068,8.83566 18.068,8.72236 L18.068,0.39017 C18.068,0.31134 18.1,0.24474 18.152,0.20201 Z M32.874,0.37495 C32.845,0.33902 32.803,0.31085 32.746,0.28948 C32.204,0.0881 31.624,0 30.922,0 C28.247,0 26.485,1.90054 26.485,4.55626 C26.485,7.26236 28.26,9.11256 30.983,9.11256 C31.587,9.11256 32.241,9.04956 32.783,8.81046 C32.841,8.78876 32.884,8.75996 32.912,8.72316 C32.913,8.72206 32.914,8.72096 32.915,8.71976 C32.923,8.70836 32.93,8.69626 32.936,8.68336 C32.938,8.67896 32.94,8.67456 32.941,8.67006 C32.956,8.63136 32.96,8.58606 32.955,8.53356 L32.906,7.96716 C32.894,7.75316 32.746,7.70286 32.549,7.79096 C32.056,8.00496 31.55,8.10566 31.033,8.10566 C28.913,8.10566 27.594,6.72116 27.594,4.55626 C27.594,2.50468 28.851,1.00691 30.996,1.00691 C31.538,1.00691 32.056,1.09501 32.512,1.30898 C32.721,1.40967 32.832,1.34674 32.844,1.13277 L32.918,0.56638 C32.922,0.53075 32.921,0.49846 32.915,0.46928 C32.914,0.46454 32.913,0.45989 32.912,0.45532 C32.906,0.4287 32.895,0.40483 32.88,0.38354 C32.878,0.38063 32.876,0.37776 32.874,0.37495 Z M37.072,7.97976 L38.526,7.97976 C38.572,7.97976 38.617,7.97896 38.661,7.97726 C38.824,7.97126 38.976,7.95406 39.116,7.92646 C40.029,7.74636 40.461,7.11916 40.461,6.19246 C40.461,5.26876 40.022,4.63166 39.094,4.45496 C38.96,4.42946 38.816,4.41356 38.661,4.40776 C38.617,4.40606 38.572,4.40526 38.526,4.40526 L37.072,4.40526 L37.072,7.97976 Z M36.072,8.89326 C36.022,8.84666 35.987,8.78276 35.987,8.72236 L35.987,0.39017 C35.987,0.25172 36.11,0.15103 36.221,0.15103 L36.837,0.15103 C36.973,0.15103 37.072,0.25172 37.072,0.39017 L37.072,3.42346 L38.661,3.42346 C38.87,3.42346 39.069,3.43896 39.259,3.46886 C40.687,3.69376 41.57,4.73726 41.57,6.19246 C41.57,7.63736 40.699,8.67626 39.29,8.91116 C39.091,8.94436 38.881,8.96146 38.661,8.96146 L36.221,8.96146 C36.169,8.96146 36.115,8.93406 36.072,8.89326 Z M43.505,0.15103 L42.889,0.15103 C42.778,0.15103 42.654,0.25172 42.654,0.39017 L42.654,8.72236 C42.654,8.83566 42.778,8.96146 42.889,8.96146 L43.505,8.96146 C43.653,8.96146 43.739,8.83566 43.739,8.72236 L43.739,0.39017 C43.739,0.25172 43.653,0.15103 43.505,0.15103 Z" id="path-3"></path> <path d="M-12.643,-5.78284 L-12.643,16.12146 L-12.643,-5.78284 Z" id="path-5"></path> <path d="M-12.643,-6.78284 C-12.091,-6.78284 -11.643,-6.335125 -11.643,-5.78284 L-11.643,16.12146 C-11.643,16.67376 -12.091,17.12146 -12.643,17.12146 C-13.196,17.12146 -13.643,16.67376 -13.643,16.12146 L-13.643,-5.78284 C-13.643,-6.335125 -13.196,-6.78284 -12.643,-6.78284 Z" id="path-7"></path> <path d="M-31.5978,-1.53599 L-31.5978,9.87956 L-39.5156,9.87956 C-40.8371,9.87956 -41.5028,9.19246 -41.5028,7.81986 L-41.5028,-1.53599 C-41.5028,-2.89753 -42.1505,-3.50993 -43.4589,-3.50993 C-44.7601,-3.50993 -45.4045,-2.8712 -45.4045,-1.53599 L-45.4045,7.73406 C-45.4045,11.84246 -43.4263,13.90136 -39.5491,13.90136 C-36.1292,13.90136 -32.2569,12.77346 -31.5259,12.50416 C-31.3511,13.43596 -30.7394,13.91416 -29.68,13.91416 C-29.6677,13.91416 -29.6571,13.90056 -29.6457,13.90056 L-29.6457,13.91416 C-28.3331,13.91416 -27.6904,13.25166 -27.6904,11.87816 L-27.6904,-1.53599 C-27.6904,-3.08015 -28.5953,-3.50993 -29.6326,-3.50993 C-30.9452,-3.52267 -31.5978,-2.86101 -31.5978,-1.53599 Z M-51.0164,-3.51011 C-52.337,-3.51011 -52.9909,-2.86038 -53.0047,-1.53627 L-53.0047,9.87876 L-60.9141,9.87876 C-62.2373,9.87876 -62.9033,9.19156 -62.9033,7.81906 L-62.9033,-1.53542 C-62.9033,-2.8969 -63.5596,-3.50926 -64.855,-3.50926 C-66.1552,-3.50926 -66.8091,-2.87057 -66.8091,-1.53542 L-66.8091,7.73416 C-66.8091,11.84236 -64.8329,13.90116 -60.9501,13.90116 C-57.543,13.90116 -53.6708,12.77326 -52.9451,12.50396 C-52.7656,13.44846 -52.1126,13.92666 -51.0498,13.91386 C-49.752,13.91386 -49.0949,13.25136 -49.0949,11.92816 L-49.0949,-1.52438 C-49.0949,-2.98353 -49.8842,-3.51011 -51.0164,-3.51011 Z M-74.1899,6.68836 C-74.1899,8.02316 -75.4582,9.36866 -76.7179,9.36866 L-83.7851,9.36866 L-83.7851,0.27777 L-76.7179,0.27777 C-75.4582,0.27777 -74.1899,1.58861 -74.1899,2.8392 L-74.1899,6.68836 Z M-76.2508,-3.51011 C-80.1347,-3.51011 -83.6749,-2.11701 -83.6749,-2.11701 C-83.6749,-2.11701 -84.393,-3.51011 -85.5623,-3.51011 C-86.7445,-3.51011 -87.4755,-2.92359 -87.4755,-1.55502 L-87.4755,17.22566 C-87.4755,18.55696 -86.8254,19.21716 -85.5405,19.21716 C-84.2547,19.21716 -83.6046,18.53246 -83.6046,17.17576 L-83.6046,12.43526 C-81.9177,13.18096 -78.5295,13.84026 -76.2289,13.84026 C-72.4849,13.84026 -69.7613998,11.10226 -69.7613998,7.01016 L-69.7613998,3.19813 C-69.7606,-0.82208 -72.3701,-3.51011 -76.2508,-3.51011 Z M-94.8564,7.36706 C-94.8564,8.70256 -95.522,9.36866 -96.8688,9.36866 L-101.4992,9.36866 L-101.4992,0.27777 L-96.8688,0.27777 C-95.522,0.27777 -94.8564,0.90919 -94.8564,2.17288 L-94.8564,7.36706 Z M-110.56163,9.36866 C-111.89401,9.36866 -112.57056,8.70256 -112.57056,7.36706 L-112.57056,2.17288 C-112.57056,0.90919 -111.89401,0.27777 -110.56163,0.27777 L-105.9278,0.27777 L-105.9278,9.36866 L-110.56163,9.36866 Z M-103.7123,-5.78284 C-105.0399,-5.78284 -105.6913,-5.12036 -105.6913,-3.77291 L-105.6913,-1.78797 C-106.58325,-2.51045 -109.25007,-3.17126 -110.3115,-3.15959 C-114.27949,-3.1121 -116.261,-1.18716 -116.261,2.75854 L-116.261,7.87256 C-116.261,11.90156 -114.27949,14.00736 -110.33465,13.92316 C-108.58543,13.88736 -106.39147,12.90066 -105.6913,12.53986 L-105.6913,17.25636 C-105.6913,18.56716 -105.0399,19.21716 -103.7123,19.21716 C-102.3979,19.21716 -101.7324,18.56716 -101.7324,17.25636 L-101.7324,12.53986 C-100.9239,12.93656 -98.7903,13.92316 -97.1031,13.92316 C-93.145,13.92316 -91.166,11.90236 -91.166,7.87256 L-91.166,2.75854 C-91.166,-1.18716 -93.1558,-3.12293 -97.1262,-3.15959 C-98.5613,-3.17126 -100.3345,-2.70211 -101.7332,-1.78797 L-101.7332,-3.83374 C-101.7324,-5.13286 -102.3979,-5.78284 -103.7123,-5.78284 Z" id="path-9"></path> </defs> <g id="Page-1" stroke="none" stroke-width="1" fill="none" fill-rule="evenodd"> <g id="Group"> <path d="M117.346,10.8356 L120.809,7.13526 C120.945,6.99681 121.08,6.93387 121.24,6.93387 L122.004,6.93387 C122.165,6.93387 122.214,7.08491 122.103,7.19819 L118.492,11.0622 L122.682,15.4674 C122.793,15.5807 122.744,15.7443 122.584,15.7443 L121.733,15.7443 C121.573,15.7443 121.438,15.6814 121.302,15.5429 L117.346,11.2888 L117.346,15.5052 C117.346,15.6185 117.26,15.7443 117.112,15.7443 L116.496,15.7443 C116.385,15.7443 116.261,15.6185 116.261,15.5052 L116.261,7.17301 C116.261,7.03456 116.385,6.93387 116.496,6.93387 L117.112,6.93387 C117.26,6.93387 117.346,7.03456 117.346,7.17301 L117.346,10.8356 Z M126.417,15.5429 L127.538,13.1138 L124.531,7.14784 C124.482,7.00939 124.531,6.93387 124.666,6.93387 L125.455,6.93387 C125.554,6.93387 125.628,6.98422 125.665,7.08491 L128.068,11.9432 L130.299,7.11008 C130.348,6.99681 130.447,6.93387 130.533,6.93387 L131.322,6.93387 C131.457,6.93387 131.506,6.99681 131.457,7.13526 L127.563,15.5807 C127.526,15.694 127.452,15.7443 127.341,15.7443 L126.552,15.7443 C126.441,15.7443 126.355,15.6562 126.417,15.5429 Z M140.22,9.6777 C140.22,11.4398 138.938,12.4215 137.003,12.4215 L135.413,12.4215 L135.413,15.5052 C135.413,15.6185 135.315,15.7443 135.179,15.7443 L134.563,15.7443 C134.427,15.7443 134.329,15.6185 134.329,15.5052 L134.329,7.17301 C134.329,7.03456 134.427,6.93387 134.563,6.93387 L137.003,6.93387 C138.938,6.93387 140.22,7.91561 140.22,9.6777 Z M139.11,9.6777 C139.11,8.46941 138.408,7.91561 136.917,7.91561 L135.413,7.91561 L135.413,11.4398 L136.917,11.4398 C138.408,11.4398 139.11,10.886 139.11,9.6777 Z M148.81,14.5738 C149.007,14.4857 149.155,14.536 149.167,14.75 L149.216,15.3164 C149.229,15.4548 149.179,15.5429 149.044,15.5933 C148.502,15.8324 147.848,15.8954 147.244,15.8954 C144.521,15.8954 142.746,14.0452 142.746,11.3391 C142.746,8.68338 144.508,6.78284 147.183,6.78284 C147.885,6.78284 148.465,6.87094 149.007,7.07232 C149.142,7.12267 149.192,7.21077 149.179,7.34922 L149.105,7.91561 C149.093,8.12958 148.982,8.19251 148.773,8.09182 C148.317,7.87785 147.799,7.78975 147.257,7.78975 C145.112,7.78975 143.855,9.28752 143.855,11.3391 C143.855,13.504 145.174,14.8885 147.294,14.8885 C147.811,14.8885 148.317,14.7878 148.81,14.5738 Z M152.482,6.93387 L153.098,6.93387 C153.234,6.93387 153.333,7.03456 153.333,7.17301 L153.333,10.2063 L154.922,10.2063 C156.697,10.2063 157.831,11.3265 157.831,12.9753 C157.831,14.6241 156.697,15.7443 154.922,15.7443 L152.482,15.7443 C152.371,15.7443 152.248,15.6185 152.248,15.5052 L152.248,7.17301 C152.248,7.03456 152.371,6.93387 152.482,6.93387 Z M156.722,12.9753 C156.722,11.8803 156.106,11.1881 154.787,11.1881 L153.333,11.1881 L153.333,14.7626 L154.787,14.7626 C156.106,14.7626 156.722,14.0829 156.722,12.9753 Z M159.15,6.93387 L159.766,6.93387 C159.914,6.93387 160,7.03456 160,7.17301 L160,15.5052 C160,15.6185 159.914,15.7443 159.766,15.7443 L159.15,15.7443 C159.039,15.7443 158.915,15.6185 158.915,15.5052 L158.915,7.17301 C158.915,7.03456 159.039,6.93387 159.15,6.93387 Z" id="Shape" fill="#4361EE" fill-rule="nonzero"></path> <path d="M117.346,15.5052 C117.346,15.6185 117.26,15.7443 117.112,15.7443 L116.496,15.7443 C116.385,15.7443 116.261,15.6185 116.261,15.5052 L116.261,7.17301 C116.261,7.03456 116.385,6.93387 116.496,6.93387 L117.112,6.93387 C117.26,6.93387 117.346,7.03456 117.346,7.17301 L117.346,10.8356 L120.809,7.13526 C120.925,7.01694 121.041,6.95378 121.172,6.93791 C121.194,6.9352 121.217,6.93387 121.24,6.93387 L122.004,6.93387 C122.165,6.93387 122.214,7.08491 122.103,7.19819 L118.492,11.0622 L122.682,15.4674 C122.793,15.5807 122.744,15.7443 122.584,15.7443 L121.733,15.7443 C121.66,15.7443 121.592,15.7312 121.527,15.7038 C121.449,15.6711 121.376,15.6182 121.302,15.5429 L117.346,11.2888 L117.346,15.5052 Z M127.386,15.7412 C127.402,15.7388 127.417,15.7351 127.432,15.7301 C127.493,15.708 127.537,15.6596 127.563,15.5807 L131.457,7.13526 C131.506,6.99681 131.457,6.93387 131.322,6.93387 L130.533,6.93387 C130.516,6.93387 130.5,6.93614 130.483,6.94059 C130.468,6.94457 130.453,6.9503 130.438,6.95772 C130.382,6.98567 130.33,7.03755 130.299,7.11008 L128.068,11.9432 L125.665,7.08491 C125.641,7.02115 125.603,6.97757 125.553,6.95419 C125.538,6.94692 125.521,6.94161 125.503,6.93824 C125.488,6.93533 125.472,6.93387 125.455,6.93387 L124.666,6.93387 C124.531,6.93387 124.482,7.00939 124.531,7.14784 L127.538,13.1138 L126.417,15.5429 C126.355,15.6562 126.441,15.7443 126.552,15.7443 L127.341,15.7443 C127.357,15.7443 127.372,15.7433 127.386,15.7412 Z M135.413,11.4398 L136.917,11.4398 C136.946,11.4398 136.975,11.4396 137.003,11.4392 C137.549,11.4311 137.986,11.3452 138.316,11.1763 C138.852,10.9025 139.11,10.4104 139.11,9.6777 C139.11,8.94499 138.852,8.45295 138.316,8.17913 C137.986,8.0102 137.549,7.92433 137.003,7.91624 C136.975,7.91582 136.946,7.91561 136.917,7.91561 L135.413,7.91561 L135.413,11.4398 Z M134.413,6.98485 C134.453,6.95254 134.504,6.93387 134.563,6.93387 L137.003,6.93387 C137.672,6.93387 138.264,7.05135 138.75,7.27797 C139.671,7.70646 140.22,8.52516 140.22,9.6777 C140.22,10.8302 139.671,11.6489 138.75,12.0774 C138.264,12.3041 137.672,12.4215 137.003,12.4215 L135.413,12.4215 L135.413,15.5052 C135.413,15.6185 135.315,15.7443 135.179,15.7443 L134.563,15.7443 C134.427,15.7443 134.329,15.6185 134.329,15.5052 L134.329,7.17301 C134.329,7.09418 134.361,7.02758 134.413,6.98485 Z M149.135,7.15779 C149.106,7.12186 149.064,7.09369 149.007,7.07232 C148.465,6.87094 147.885,6.78284 147.183,6.78284 C144.508,6.78284 142.746,8.68338 142.746,11.3391 C142.746,14.0452 144.521,15.8954 147.244,15.8954 C147.848,15.8954 148.502,15.8324 149.044,15.5933 C149.102,15.5716 149.145,15.5428 149.173,15.506 C149.174,15.5049 149.175,15.5038 149.176,15.5026 C149.184,15.4912 149.191,15.4791 149.197,15.4662 C149.199,15.4618 149.201,15.4574 149.202,15.4529 C149.217,15.4142 149.221,15.3689 149.216,15.3164 L149.167,14.75 C149.155,14.536 149.007,14.4857 148.81,14.5738 C148.317,14.7878 147.811,14.8885 147.294,14.8885 C145.174,14.8885 143.855,13.504 143.855,11.3391 C143.855,9.28752 145.112,7.78975 147.257,7.78975 C147.799,7.78975 148.317,7.87785 148.773,8.09182 C148.982,8.19251 149.093,8.12958 149.105,7.91561 L149.179,7.34922 C149.183,7.31359 149.182,7.2813 149.176,7.25212 C149.175,7.24738 149.174,7.24273 149.173,7.23816 C149.167,7.21154 149.156,7.18767 149.141,7.16638 C149.139,7.16347 149.137,7.1606 149.135,7.15779 Z M153.333,14.7626 L154.787,14.7626 C154.833,14.7626 154.878,14.7618 154.922,14.7601 C155.085,14.7541 155.237,14.7369 155.377,14.7093 C156.29,14.5292 156.722,13.902 156.722,12.9753 C156.722,12.0516 156.283,11.4145 155.355,11.2378 C155.221,11.2123 155.077,11.1964 154.922,11.1906 C154.878,11.1889 154.833,11.1881 154.787,11.1881 L153.333,11.1881 L153.333,14.7626 Z M152.333,15.6761 C152.283,15.6295 152.248,15.5656 152.248,15.5052 L152.248,7.17301 C152.248,7.03456 152.371,6.93387 152.482,6.93387 L153.098,6.93387 C153.234,6.93387 153.333,7.03456 153.333,7.17301 L153.333,10.2063 L154.922,10.2063 C155.131,10.2063 155.33,10.2218 155.52,10.2517 C156.948,10.4766 157.831,11.5201 157.831,12.9753 C157.831,14.4202 156.96,15.4591 155.551,15.694 C155.352,15.7272 155.142,15.7443 154.922,15.7443 L152.482,15.7443 C152.43,15.7443 152.376,15.7169 152.333,15.6761 Z M159.766,6.93387 L159.15,6.93387 C159.039,6.93387 158.915,7.03456 158.915,7.17301 L158.915,15.5052 C158.915,15.6185 159.039,15.7443 159.15,15.7443 L159.766,15.7443 C159.914,15.7443 160,15.6185 160,15.5052 L160,7.17301 C160,7.03456 159.914,6.93387 159.766,6.93387 Z" id="Shape" fill="#4361EE"></path> <path d="M103.618,1 L103.618,22.9043 L103.618,1 Z" id="Path" fill="#4361EE"></path> <path d="M103.618,0 C104.17,0 104.618,0.447715 104.618,1 L104.618,22.9043 C104.618,23.4566 104.17,23.9043 103.618,23.9043 C103.065,23.9043 102.618,23.4566 102.618,22.9043 L102.618,1 C102.618,0.447715 103.065,0 103.618,0 Z" id="Path" fill="#4361EE"></path> <path d="M84.6632,5.24685 L84.6632,16.6624 L76.7454,16.6624 C75.4239,16.6624 74.7582,15.9753 74.7582,14.6027 L74.7582,5.24685 C74.7582,3.88531 74.1105,3.27291 72.8021,3.27291 C71.5009,3.27291 70.8565,3.91164 70.8565,5.24685 L70.8565,14.5169 C70.8565,18.6253 72.8347,20.6842 76.7119,20.6842 C80.1318,20.6842 84.0041,19.5563 84.7351,19.287 C84.9099,20.2188 85.5216,20.697 86.581,20.697 C86.5933,20.697 86.6039,20.6834 86.6153,20.6834 L86.6153,20.697 C87.9279,20.697 88.5706,20.0345 88.5706,18.661 L88.5706,5.24685 C88.5706,3.70269 87.6657,3.27291 86.6284,3.27291 C85.3158,3.26017 84.6632,3.92183 84.6632,5.24685 Z M65.2446,3.27273 C63.924,3.27273 63.2701,3.92246 63.2563,5.24657 L63.2563,16.6616 L55.3469,16.6616 C54.0237,16.6616 53.3577,15.9744 53.3577,14.6019 L53.3577,5.24742 C53.3577,3.88594 52.7014,3.27358 51.406,3.27358 C50.1058,3.27358 49.4519,3.91227 49.4519,5.24742 L49.4519,14.517 C49.4519,18.6252 51.4281,20.684 55.3109,20.684 C58.718,20.684 62.5902,19.5561 63.3159,19.2868 C63.4954,20.2313 64.1484,20.7095 65.2112,20.6967 C66.509,20.6967 67.1661,20.0342 67.1661,18.711 L67.1661,5.25846 C67.1661,3.79931 66.3768,3.27273 65.2446,3.27273 Z M42.0711,13.4712 C42.0711,14.806 40.8028,16.1515 39.5431,16.1515 L32.4759,16.1515 L32.4759,7.06061 L39.5431,7.06061 C40.8028,7.06061 42.0711,8.37145 42.0711,9.62204 L42.0711,13.4712 Z M40.0102,3.27273 C36.1263,3.27273 32.5861,4.66583 32.5861,4.66583 C32.5861,4.66583 31.868,3.27273 30.6987,3.27273 C29.5165,3.27273 28.7855,3.85925 28.7855,5.22782 L28.7855,24.0085 C28.7855,25.3398 29.4356,26 30.7205,26 C32.0063,26 32.6564,25.3153 32.6564,23.9586 L32.6564,19.2181 C34.3433,19.9638 37.7315,20.6231 40.0321,20.6231 C43.7761,20.6231 46.4996002,17.8851 46.4996002,13.793 L46.4996002,9.98097 C46.5004,5.96076 43.8909,3.27273 40.0102,3.27273 Z M21.4046,14.1499 C21.4046,15.4854 20.739,16.1515 19.3922,16.1515 L14.7618,16.1515 L14.7618,7.06061 L19.3922,7.06061 C20.739,7.06061 21.4046,7.69203 21.4046,8.95572 L21.4046,14.1499 Z M5.69937,16.1515 C4.36699,16.1515 3.69044,15.4854 3.69044,14.1499 L3.69044,8.95572 C3.69044,7.69203 4.36699,7.06061 5.69937,7.06061 L10.3332,7.06061 L10.3332,16.1515 L5.69937,16.1515 Z M12.5487,1 C11.2211,1 10.5697,1.66248 10.5697,3.00993 L10.5697,4.99487 C9.67775,4.27239 7.01093,3.61158 5.9495,3.62325 C1.98151,3.67074 0,5.59568 0,9.54138 L0,14.6554 C0,18.6844 1.98151,20.7902 5.92635,20.706 C7.67557,20.6702 9.86953,19.6835 10.5697,19.3227 L10.5697,24.0392 C10.5697,25.35 11.2211,26 12.5487,26 C13.8631,26 14.5286,25.35 14.5286,24.0392 L14.5286,19.3227 C15.3371,19.7194 17.4707,20.706 19.1579,20.706 C23.116,20.706 25.095,18.6852 25.095,14.6554 L25.095,9.54138 C25.095,5.59568 23.1052,3.65991 19.1348,3.62325 C17.6997,3.61158 15.9265,4.08073 14.5278,4.99487 L14.5278,2.9491 C14.5286,1.64998 13.8631,1 12.5487,1 Z" id="Shape" fill="#4361EE" fill-rule="nonzero"></path> <g id="Clipped" transform="translate(116.261000, 6.782840)"> <mask id="mask-2" fill="white"> <use xlink:href="#path-1"></use> </mask> <g id="Shape"></g> <path d="M1.085,4.05276 L0.585,4.05276 L0.585,5.31876 L1.45,4.39446 L1.085,4.05276 Z M5.842,0.41535 L5.485,0.06544 L5.477,0.07396 L5.842,0.41535 Z M2.231,4.27936 L1.866,3.93796 L1.544,4.28236 L1.869,4.62396 L2.231,4.27936 Z M6.421,8.68456 L6.059,9.02926 L6.064,9.03436 L6.421,8.68456 Z M1.085,4.50596 L1.451,4.16546 L0.585,3.23396 L0.585,4.50596 L1.085,4.50596 Z M10.156,8.76006 L10.595,8.99906 L10.603,8.98456 L10.609,8.96966 L10.156,8.76006 Z M11.277,6.33096 L11.731,6.54056 L11.832,6.32136 L11.723,6.10586 L11.277,6.33096 Z M8.27,0.365 L7.799,0.53272 L7.809,0.56215 L7.823,0.59005 L8.27,0.365 Z M11.807,5.16036 L11.359,5.38206 L11.823,6.31966 L12.261,5.36996 L11.807,5.16036 Z M15.196,0.35242 L15.65,0.56179 L15.66,0.54134 L15.667,0.52013 L15.196,0.35242 Z M19.152,5.63866 L19.152,5.13866 L18.652,5.13866 L18.652,5.63866 L19.152,5.63866 Z M19.152,1.13277 L19.152,0.63277 L18.652,0.63277 L18.652,1.13277 L19.152,1.13277 Z M19.152,4.65696 L18.652,4.65696 L18.652,5.15696 L19.152,5.15696 L19.152,4.65696 Z M32.549,7.79096 L32.748,8.24966 L32.753,8.24746 L32.549,7.79096 Z M32.906,7.96716 L32.407,7.99596 L32.407,8.00326 L32.408,8.01056 L32.906,7.96716 Z M32.844,1.13277 L32.349,1.06804 L32.346,1.08597 L32.345,1.10402 L32.844,1.13277 Z M32.512,1.30898 L32.728,0.8583 L32.724,0.85633 L32.512,1.30898 Z M37.072,3.42346 L36.572,3.42346 L36.572,3.92346 L37.072,3.92346 L37.072,3.42346 Z M37.072,4.40526 L37.072,3.90526 L36.572,3.90526 L36.572,4.40526 L37.072,4.40526 Z M37.072,7.97976 L36.572,7.97976 L36.572,8.47976 L37.072,8.47976 L37.072,7.97976 Z M1.45,4.39446 L4.913,0.69407 L4.183,0.01076 L0.72,3.71116 L1.45,4.39446 Z M4.979,0.65103 L5.743,0.65103 L5.743,-0.34897 L4.979,-0.34897 L4.979,0.65103 Z M5.743,0.65103 C5.658,0.65103 5.49,0.59603 5.423,0.40843 C5.363,0.23928 5.44,0.11136 5.485,0.06553 L6.199,0.76516 C6.355,0.60606 6.463,0.34598 6.365,0.07299 C6.262,-0.21844 5.989,-0.34897 5.743,-0.34897 L5.743,0.65103 Z M5.477,0.07396 L1.866,3.93796 L2.596,4.62076 L6.207,0.75674 L5.477,0.07396 Z M1.869,4.62396 L6.059,9.02916 L6.784,8.33996 L2.593,3.93476 L1.869,4.62396 Z M6.064,9.03436 C6.01,8.97936 5.949,8.85746 6,8.70636 C6.025,8.63176 6.074,8.56496 6.142,8.51936 C6.209,8.47396 6.276,8.46146 6.323,8.46146 L6.323,9.46146 C6.592,9.46146 6.853,9.30696 6.948,9.02466 C7.035,8.76346 6.943,8.50316 6.779,8.33476 L6.064,9.03436 Z M6.323,8.46146 L5.472,8.46146 L5.472,9.46146 L6.323,9.46146 L6.323,8.46146 Z M5.407,8.41966 L1.451,4.16546 L0.719,4.84636 L4.675,9.10056 L5.407,8.41966 Z M0.585,4.50596 L0.585,8.72236 L1.585,8.72236 L1.585,4.50596 L0.585,4.50596 Z M0.585,8.72236 C0.585,8.65866 0.607,8.60096 0.648,8.55456 C0.696,8.49986 0.771,8.46146 0.851,8.46146 L0.851,9.46146 C1.334,9.46146 1.585,9.04856 1.585,8.72236 L0.585,8.72236 Z M0.851,8.46146 L0.235,8.46146 L0.235,9.46146 L0.851,9.46146 L0.851,8.46146 Z M0.235,8.46146 C0.3,8.46146 0.348,8.47956 0.375,8.49276 C0.402,8.50646 0.421,8.52176 0.433,8.53456 C0.446,8.54746 0.46,8.56566 0.472,8.59146 C0.484,8.61656 0.5,8.66116 0.5,8.72236 L-0.5,8.72236 C-0.5,8.94936 -0.386,9.12786 -0.281,9.23416 C-0.178,9.33946 0.001,9.46146 0.235,9.46146 L0.235,8.46146 Z M0.5,8.72236 L0.5,0.39017 L-0.5,0.39017 L-0.5,8.72236 L0.5,8.72236 Z M0.5,0.39017 C0.5,0.47588 0.461,0.54225 0.42,0.58103 C0.385,0.61483 0.324,0.65103 0.235,0.65103 L0.235,-0.34897 C-0.129,-0.34897 -0.5,-0.04785 -0.5,0.39017 L0.5,0.39017 Z M0.235,0.65103 L0.851,0.65103 L0.851,-0.34897 L0.235,-0.34897 L0.235,0.65103 Z M0.851,0.65103 C0.806,0.65103 0.726,0.63244 0.659,0.56169 C0.597,0.49501 0.585,0.42403 0.585,0.39017 L1.585,0.39017 C1.585,0.21787 1.53,0.02731 1.387,-0.12432 C1.24,-0.28003 1.043,-0.34897 0.851,-0.34897 L0.851,0.65103 Z M0.585,0.39017 L0.585,4.05276 L1.585,4.05276 L1.585,0.39017 L0.585,0.39017 Z M10.609,8.96966 L11.731,6.54056 L10.823,6.12136 L9.702,8.55056 L10.609,8.96966 Z M11.723,6.10586 L8.716,0.13995 L7.823,0.59005 L10.831,6.55596 L11.723,6.10586 Z M8.741,0.19728 C8.741,0.19799 8.751,0.22428 8.751,0.26953 C8.752,0.3178 8.741,0.39529 8.69,0.4752 C8.578,0.65008 8.409,0.65103 8.405,0.65103 L8.405,-0.34897 C8.266,-0.34897 8.005,-0.31025 7.847,-0.06301 C7.699,0.16919 7.756,0.41234 7.799,0.53272 L8.741,0.19728 Z M8.405,0.65103 L9.194,0.65103 L9.194,-0.34897 L8.405,-0.34897 L8.405,0.65103 Z M8.956,0.52376 L11.359,5.38206 L12.255,4.93876 L9.852,0.08038 L8.956,0.52376 Z M12.261,5.36996 L14.492,0.53677 L13.584,0.11771 L11.353,4.95086 L12.261,5.36996 Z M14.272,0.65103 L15.061,0.65103 L15.061,-0.34897 L14.272,-0.34897 L14.272,0.65103 Z M15.061,0.65103 C15.06,0.65103 15.028,0.65154 14.98,0.63469 C14.927,0.61614 14.849,0.57354 14.788,0.48639 C14.727,0.3995 14.714,0.31233 14.715,0.25876 C14.715,0.23295 14.718,0.21363 14.72,0.20247 C14.723,0.19119 14.725,0.18502 14.725,0.1847 L15.667,0.52013 C15.706,0.41202 15.776,0.15372 15.607,-0.08678 C15.438,-0.32879 15.171,-0.34897 15.061,-0.34897 L15.061,0.65103 Z M14.742,0.14304 L10.848,8.58846 L11.756,9.00726 L15.65,0.56179 L14.742,0.14304 Z M11.08,8.46146 L10.291,8.46146 L10.291,9.46146 L11.08,9.46146 L11.08,8.46146 Z M10.291,8.46146 C10.358,8.46146 10.47,8.48776 10.555,8.59916 C10.601,8.65806 10.631,8.73326 10.635,8.81546 C10.638,8.89636 10.616,8.95976 10.595,8.99906 L9.716,8.52116 C9.603,8.72986 9.6,8.99596 9.762,9.20746 C9.903,9.39126 10.113,9.46146 10.291,9.46146 L10.291,8.46146 Z M20.742,5.13866 L19.152,5.13866 L19.152,6.13866 L20.742,6.13866 L20.742,5.13866 Z M18.652,5.63866 L18.652,8.72236 L19.652,8.72236 L19.652,5.63866 L18.652,5.63866 Z M18.652,8.72236 C18.652,8.64096 18.684,8.58366 18.716,8.54756 C18.754,8.50666 18.823,8.46146 18.918,8.46146 L18.918,9.46146 C19.372,9.46146 19.652,9.06716 19.652,8.72236 L18.652,8.72236 Z M18.918,8.46146 L18.302,8.46146 L18.302,9.46146 L18.918,9.46146 L18.918,8.46146 Z M18.302,8.46146 C18.397,8.46146 18.466,8.50666 18.503,8.54756 C18.536,8.58356 18.568,8.64096 18.568,8.72236 L17.568,8.72236 C17.568,9.06726 17.848,9.46146 18.302,9.46146 L18.302,8.46146 Z M18.568,8.72236 L18.568,0.39017 L17.568,0.39017 L17.568,8.72236 L18.568,8.72236 Z M18.302,0.65103 L20.742,0.65103 L20.742,-0.34897 L18.302,-0.34897 L18.302,0.65103 Z M20.656,0.63277 L19.152,0.63277 L19.152,1.63277 L20.656,1.63277 L20.656,0.63277 Z M18.652,1.13277 L18.652,4.65696 L19.652,4.65696 L19.652,1.13277 L18.652,1.13277 Z M19.152,5.15696 L20.656,5.15696 L20.656,4.15696 L19.152,4.15696 L19.152,5.15696 Z M32.753,8.24746 C32.767,8.24116 32.761,8.24616 32.737,8.24856 C32.713,8.25106 32.658,8.25176 32.592,8.22206 C32.52,8.18986 32.467,8.13636 32.436,8.08086 C32.422,8.05566 32.415,8.03416 32.411,8.01976 C32.407,8.00546 32.407,7.99686 32.407,7.99596 L33.405,7.93846 C33.393,7.72376 33.296,7.44186 33.001,7.30956 C32.747,7.19556 32.496,7.26676 32.345,7.33446 L32.753,8.24746 Z M32.408,8.01056 L32.457,8.57696 L33.453,8.49016 L33.404,7.92376 L32.408,8.01056 Z M32.581,8.35296 C32.134,8.54996 31.564,8.61256 30.983,8.61256 L30.983,9.61256 C31.61,9.61256 32.347,9.54926 32.985,9.26796 L32.581,8.35296 Z M30.983,8.61256 C29.738,8.61256 28.749,8.19216 28.07,7.49936 C27.391,6.80536 26.985,5.79846 26.985,4.55626 L25.985,4.55626 C25.985,6.02016 26.467,7.29136 27.356,8.19896 C28.246,9.10776 29.505,9.61256 30.983,9.61256 L30.983,8.61256 Z M26.985,4.55626 C26.985,3.34006 27.387,2.33067 28.061,1.62851 C28.733,0.92851 29.708,0.5 30.922,0.5 L30.922,-0.5 C29.461,-0.5 28.218,0.02175 27.34,0.93595 C26.464,1.848 25.985,3.11671 25.985,4.55626 L26.985,4.55626 Z M30.922,0.5 C31.581,0.5 32.098,0.58237 32.572,0.7582 L32.92,-0.17924 C32.309,-0.40617 31.668,-0.5 30.922,-0.5 L30.922,0.5 Z M32.423,0.50166 L32.349,1.06804 L33.34,1.1975 L33.414,0.63111 L32.423,0.50166 Z M32.345,1.10402 C32.344,1.12054 32.343,1.0996 32.36,1.06044 C32.38,1.01538 32.427,0.94612 32.515,0.89873 C32.6,0.85274 32.676,0.85345 32.711,0.85774 C32.743,0.86161 32.751,0.86904 32.728,0.85832 L32.295,1.75964 C32.432,1.82567 32.711,1.92889 32.989,1.77901 C33.283,1.62092 33.335,1.31628 33.344,1.16152 L32.345,1.10402 Z M32.724,0.85633 C32.184,0.60311 31.59,0.50691 30.996,0.50691 L30.996,1.50691 C31.486,1.50691 31.927,1.58691 32.299,1.76163 L32.724,0.85633 Z M30.996,0.50691 C29.801,0.50691 28.811,0.92792 28.123,1.67312 C27.44,2.41321 27.094,3.42976 27.094,4.55626 L28.094,4.55626 C28.094,3.63116 28.377,2.87306 28.858,2.35137 C29.335,1.83478 30.046,1.50691 30.996,1.50691 L30.996,0.50691 Z M27.094,4.55626 C27.094,5.74016 27.456,6.76156 28.159,7.48976 C28.863,8.22016 29.861,8.60566 31.033,8.60566 L31.033,7.60566 C30.085,7.60566 29.364,7.29876 28.879,6.79576 C28.391,6.29056 28.094,5.53716 28.094,4.55626 L27.094,4.55626 Z M31.033,8.60566 C31.617,8.60566 32.191,8.49146 32.748,8.24966 L32.35,7.33226 C31.921,7.51846 31.483,7.60566 31.033,7.60566 L31.033,8.60566 Z M36.221,0.65103 L36.837,0.65103 L36.837,-0.34897 L36.221,-0.34897 L36.221,0.65103 Z M36.837,0.65103 C36.777,0.65103 36.705,0.62665 36.648,0.56848 C36.592,0.51094 36.572,0.44222 36.572,0.39017 L37.572,0.39017 C37.572,-0.0144 37.259,-0.34897 36.837,-0.34897 L36.837,0.65103 Z M36.572,0.39017 L36.572,3.42346 L37.572,3.42346 L37.572,0.39017 L36.572,0.39017 Z M37.072,3.92346 L38.661,3.92346 L38.661,2.92349 L37.072,2.92349 L37.072,3.92346 Z M38.661,8.46146 L36.221,8.46146 L36.221,9.46146 L38.661,9.46146 L38.661,8.46146 Z M36.487,8.72236 L36.487,0.39017 L35.487,0.39017 L35.487,8.72236 L36.487,8.72236 Z M36.487,0.39017 C36.487,0.47589 36.448,0.54226 36.407,0.58103 C36.372,0.61483 36.311,0.65103 36.221,0.65103 L36.221,-0.34897 C35.858,-0.34897 35.487,-0.04787 35.487,0.39017 L36.487,0.39017 Z M38.526,3.90526 L37.072,3.90526 L37.072,4.90526 L38.526,4.90526 L38.526,3.90526 Z M36.572,4.40526 L36.572,7.97976 L37.572,7.97976 L37.572,4.40526 L36.572,4.40526 Z M37.072,8.47976 L38.526,8.47976 L38.526,7.47976 L37.072,7.47976 L37.072,8.47976 Z M42.889,0.65103 L43.505,0.65103 L43.505,-0.34897 L42.889,-0.34897 L42.889,0.65103 Z M43.505,0.65103 C43.46,0.65103 43.38,0.63244 43.314,0.5617 C43.251,0.49503 43.239,0.42404 43.239,0.39017 L44.239,0.39017 C44.239,0.21786 44.184,0.0273 44.041,-0.12433 C43.894,-0.28003 43.698,-0.34897 43.505,-0.34897 L43.505,0.65103 Z M43.239,0.39017 L43.239,8.72236 L44.239,8.72236 L44.239,0.39017 L43.239,0.39017 Z M43.239,8.72236 C43.239,8.65866 43.261,8.60096 43.302,8.55456 C43.35,8.49986 43.425,8.46146 43.505,8.46146 L43.505,9.46146 C43.988,9.46146 44.239,9.04856 44.239,8.72236 L43.239,8.72236 Z M43.505,8.46146 L42.889,8.46146 L42.889,9.46146 L43.505,9.46146 L43.505,8.46146 Z M42.889,8.46146 C42.954,8.46146 43.002,8.47956 43.029,8.49276 C43.056,8.50646 43.075,8.52176 43.087,8.53456 C43.1,8.54746 43.114,8.56566 43.126,8.59146 C43.138,8.61656 43.154,8.66116 43.154,8.72236 L42.154,8.72236 C42.154,8.94946 42.269,9.12796 42.373,9.23426 C42.476,9.33946 42.655,9.46146 42.889,9.46146 L42.889,8.46146 Z M43.154,8.72236 L43.154,0.39017 L42.154,0.39017 L42.154,8.72236 L43.154,8.72236 Z M43.154,0.39017 C43.154,0.47589 43.115,0.54226 43.075,0.58103 C43.039,0.61483 42.978,0.65103 42.889,0.65103 L42.889,-0.34897 C42.526,-0.34897 42.154,-0.04787 42.154,0.39017 L43.154,0.39017 Z M9.404,0.302075 L8.465,0.64676 L10.342,-0.04261 L9.404,0.302075 Z M32.955,8.53356 L33.951,8.44486 L31.959,8.62216 L32.955,8.53356 Z M32.918,0.56638 L31.922,0.47777 L33.914,0.65505 L32.918,0.56638 Z M4.911,0.15507 L4.791,-0.8377 L4.791,-0.8377 L4.911,0.15507 Z M5.266,8.92096 L5.654,7.99916 L5.654,7.99916 L5.266,8.92096 Z M11.171,8.94726 L10.833,8.00586 L10.833,8.00586 L11.171,8.94726 Z M11.125,8.95836 L11.271,9.94766 L11.271,9.94766 L11.125,8.95836 Z M14.222,0.15775 L14.477,1.12459 L14.477,1.12459 L14.222,0.15775 Z M14.177,0.17488 L13.729,-0.71927 L13.729,-0.71927 L14.177,0.17488 Z M9.292,0.17135 L9.716,-0.73428 L9.716,-0.73428 L9.292,0.17135 Z M9.242,0.1554 L9.055,1.13773 L9.055,1.13773 L9.242,0.1554 Z M20.742,4.65636 L20.757,5.65626 L20.757,5.65626 L20.742,4.65636 Z M22.055,4.39346 L22.51,5.28396 L22.055,4.39346 Z M22.055,1.39629 L21.6,2.28677 L21.6,2.28677 L22.055,1.39629 Z M20.742,1.1334 L20.757,0.13351 L20.757,0.13351 L20.742,1.1334 Z M18.152,0.20201 L18.783,0.97793 L18.783,0.97793 L18.152,0.20201 Z M22.489,0.49513 L22.068,1.40177 L22.068,1.40177 L22.489,0.49513 Z M22.489,5.29456 L22.911,6.20126 L22.911,6.20126 L22.489,5.29456 Z M32.874,0.37495 L33.659,-0.24419 L33.659,-0.24439 L32.874,0.37495 Z M32.912,8.72316 L32.121,8.11196 L32.12,8.11286 L32.912,8.72316 Z M32.915,8.71976 L33.719,9.31396 L33.72,9.31306 L32.915,8.71976 Z M32.936,8.68336 L32.025,8.27146 L32.025,8.27176 L32.936,8.68336 Z M32.941,8.67006 L32.004,8.32136 L32.004,8.32166 L32.941,8.67006 Z M32.915,0.46928 L31.932,0.65144 L31.932,0.65169 L32.915,0.46928 Z M32.912,0.45532 L31.941,0.69266 L31.941,0.69278 L32.912,0.45532 Z M32.88,0.38354 L33.697,-0.19297 L33.697,-0.19329 L32.88,0.38354 Z M38.661,7.97726 L38.699,8.97656 L38.699,8.97656 L38.661,7.97726 Z M39.116,7.92646 L39.31,8.90756 L39.31,8.90756 L39.116,7.92646 Z M39.094,4.45496 L38.907,5.43736 L38.907,5.43736 L39.094,4.45496 Z M38.661,4.40776 L38.624,5.40706 L38.624,5.40706 L38.661,4.40776 Z M36.072,8.89326 L36.757,8.16486 L36.757,8.16486 L36.072,8.89326 Z M39.259,3.46886 L39.415,2.48102 L39.415,2.48102 L39.259,3.46886 Z M39.29,8.91116 L39.454,9.89756 L39.454,9.89756 L39.29,8.91116 Z M-31.5978,9.87956 L-31.5978,10.87956 L-30.5978,10.87956 L-30.5978,9.87956 L-31.5978,9.87956 Z M-31.5259,12.50416 L-30.5431,12.31976 L-30.7612,11.15686 L-31.8715,11.56576 L-31.5259,12.50416 Z M-29.6457,13.90056 L-28.6457,13.90056 L-28.6457,12.90056 L-29.6457,12.90056 L-29.6457,13.90056 Z M-29.6457,13.91416 L-30.6457,13.91416 L-30.6457,14.91416 L-29.6457,14.91416 L-29.6457,13.91416 Z M-29.6326,-3.50993 L-29.6423,-2.50993 L-29.6326,-2.50993 L-29.6326,-3.50993 Z M-53.0047,-1.53627 L-54.0047,-1.54675 L-54.0047,-1.53627 L-53.0047,-1.53627 Z M-53.0047,9.87876 L-53.0047,10.87876 L-52.0047,10.87876 L-52.0047,9.87876 L-53.0047,9.87876 Z M-52.9451,12.50396 L-51.9627,12.31716 L-52.1837,11.15486 L-53.293,11.56646 L-52.9451,12.50396 Z M-51.0498,13.91386 L-51.0498,12.91386 L-51.0618,12.91396 L-51.0498,13.91386 Z M-83.7851,9.36866 L-84.7851,9.36866 L-84.7851,10.36866 L-83.7851,10.36866 L-83.7851,9.36866 Z M-83.7851,0.27777 L-83.7851,-0.72223 L-84.7851,-0.72223 L-84.7851,0.27777 L-83.7851,0.27777 Z M-83.6749,-2.11701 L-84.5638,-1.65884 L-84.1497,-0.85553 L-83.3087,-1.18646 L-83.6749,-2.11701 Z M-83.6046,12.43526 L-83.2003,11.52066 L-84.6046,10.89986 L-84.6046,12.43526 L-83.6046,12.43526 Z M-69.7614,3.19813 L-70.7614,3.19793 L-70.7614,3.19813 L-69.7614,3.19813 Z M-101.4992,9.36866 L-102.4992,9.36866 L-102.4992,10.36866 L-101.4992,10.36866 L-101.4992,9.36866 Z M-101.4992,0.27777 L-101.4992,-0.72223 L-102.4992,-0.72223 L-102.4992,0.27777 L-101.4992,0.27777 Z M-105.9278,0.27777 L-104.9278,0.27777 L-104.9278,-0.72223 L-105.9278,-0.72223 L-105.9278,0.27777 Z M-105.9278,9.36866 L-105.9278,10.36866 L-104.9278,10.36866 L-104.9278,9.36866 L-105.9278,9.36866 Z M-105.6913,-1.78797 L-106.32069,-1.0109 L-104.6913,0.30889 L-104.6913,-1.78797 L-105.6913,-1.78797 Z M-110.3115,-3.15959 L-110.3225,-4.15953 L-110.32347,-4.15952 L-110.3115,-3.15959 Z M-110.33465,13.92316 L-110.35513,12.92336 L-110.35598,12.92336 L-110.33465,13.92316 Z M-105.6913,12.53986 L-104.6913,12.53986 L-104.6913,10.89956 L-106.1494,11.65096 L-105.6913,12.53986 Z M-101.7324,12.53986 L-101.2919,11.64216 L-102.7324,10.93536 L-102.7324,12.53986 L-101.7324,12.53986 Z M-97.1262,-3.15959 L-97.117,-4.15955 L-97.1181,-4.15956 L-97.1262,-3.15959 Z M-101.7332,-1.78797 L-102.7332,-1.78797 L-102.7332,0.06021 L-101.1861,-0.95089 L-101.7332,-1.78797 Z M-101.7332,-3.83374 L-102.7332,-3.83437 L-102.7332,-3.83374 L-101.7332,-3.83374 Z M5.262,1.05204 C5.267,1.04713 5.239,1.07702 5.177,1.10614 C5.109,1.13796 5.038,1.15103 4.979,1.15103 L4.979,-0.84897 C4.497,-0.84897 4.117,-0.63637 3.833,-0.34721 L5.262,1.05204 Z M5.472,7.96146 C5.531,7.96146 5.602,7.97456 5.67,8.00636 C5.732,8.03546 5.76,8.06536 5.755,8.06046 L4.326,9.45976 C4.61,9.74886 4.99,9.96146 5.472,9.96146 L5.472,7.96146 Z M9.194,1.15103 C9.069,1.15103 8.901,1.11665 8.743,1.004 C8.586,0.89229 8.503,0.75084 8.465,0.64676 L10.342,-0.04262 C10.267,-0.24739 10.129,-0.46436 9.901,-0.62641 C9.672,-0.78941 9.418,-0.84897 9.194,-0.84897 L9.194,1.15103 Z M14.955,0.72628 C14.873,0.91301 14.65,1.15103 14.272,1.15103 L14.272,-0.84897 C13.721,-0.84897 13.301,-0.48508 13.121,-0.0718 L14.955,0.72628 Z M10.351,8.48756 C10.38,8.39786 10.457,8.23906 10.632,8.11196 C10.808,7.98496 10.983,7.96146 11.08,7.96146 L11.08,9.96146 C11.287,9.96146 11.555,9.91286 11.805,9.73236 C12.054,9.55176 12.186,9.31116 12.252,9.10816 L10.351,8.48756 Z M22.959,2.89486 C22.959,3.51266 22.746,3.90266 22.438,4.15736 C22.106,4.43256 21.552,4.63866 20.742,4.63866 L20.742,6.63866 C21.867,6.63866 22.921,6.35396 23.714,5.69776 C24.531,5.02106 24.959,4.03916 24.959,2.89486 L22.959,2.89486 Z M19.068,0.39017 C19.068,0.56354 19.003,0.76076 18.848,0.91831 C18.693,1.07709 18.49,1.15103 18.302,1.15103 L18.302,-0.84897 C17.594,-0.84897 17.068,-0.28062 17.068,0.39017 L19.068,0.39017 Z M20.742,1.15103 C21.552,1.15103 22.106,1.3572 22.438,1.63232 C22.746,1.88704 22.959,2.2771 22.959,2.89486 L24.959,2.89486 C24.959,1.75054 24.531,0.76868 23.714,0.09201 C22.921,-0.56427 21.867,-0.84897 20.742,-0.84897 L20.742,1.15103 Z M23.849,2.89486 C23.849,2.09111 23.607,1.3157 22.936,0.7797 C22.314,0.2821 21.493,0.13277 20.656,0.13277 L20.656,2.13277 C21.31,2.13277 21.586,2.26034 21.687,2.34171 C21.741,2.38469 21.849,2.49032 21.849,2.89486 L23.849,2.89486 Z M20.656,5.65696 C21.493,5.65696 22.314,5.50766 22.936,5.01006 C23.607,4.47406 23.849,3.69866 23.849,2.89486 L21.849,2.89486 C21.849,3.29936 21.741,3.40506 21.687,3.44806 C21.586,3.52936 21.31,3.65696 20.656,3.65696 L20.656,5.65696 Z M31.959,8.62226 C31.954,8.56186 31.95,8.38266 32.07,8.18566 C32.193,7.98316 32.362,7.89996 32.435,7.87306 L33.131,9.74786 C33.339,9.67056 33.601,9.51826 33.779,9.22446 C33.954,8.93616 33.969,8.64366 33.951,8.44486 L31.959,8.62226 Z M32.398,1.22693 C32.325,1.19995 32.156,1.11679 32.033,0.91423 C31.913,0.7172 31.917,0.538 31.922,0.47772 L33.914,0.65505 C33.932,0.45632 33.917,0.16384 33.742,-0.12444 C33.564,-0.41825 33.302,-0.57064 33.094,-0.64796 L32.398,1.22693 Z M38.661,4.42346 C39.336,4.42346 39.8,4.63296 40.088,4.91036 C40.373,5.18476 40.57,5.60466 40.57,6.19246 L42.57,6.19246 C42.57,5.13146 42.2,4.16686 41.475,3.46906 C40.752,2.77408 39.761,2.42349 38.661,2.42349 L38.661,4.42346 Z M40.57,6.19246 C40.57,6.78026 40.373,7.20016 40.088,7.47466 C39.8,7.75196 39.336,7.96146 38.661,7.96146 L38.661,9.96146 C39.761,9.96146 40.752,9.61086 41.475,8.91596 C42.2,8.21806 42.57,7.25346 42.57,6.19246 L40.57,6.19246 Z M36.221,7.96146 C36.522,7.96146 36.705,8.11116 36.777,8.18476 C36.851,8.26046 36.987,8.43816 36.987,8.72236 L34.987,8.72236 C34.987,9.11986 35.185,9.41706 35.348,9.58406 C35.509,9.74886 35.81,9.96146 36.221,9.96146 L36.221,7.96146 Z M41.461,6.19246 C41.461,5.46116 41.252,4.72206 40.685,4.17116 C40.122,3.62376 39.352,3.40526 38.526,3.40526 L38.526,5.40526 C39.018,5.40526 39.216,5.53276 39.291,5.60536 C39.362,5.67426 39.461,5.82876 39.461,6.19246 L41.461,6.19246 Z M38.526,8.97976 C39.347,8.97976 40.118,8.76686 40.683,8.22036 C41.253,7.66916 41.461,6.92746 41.461,6.19246 L39.461,6.19246 C39.461,6.56516 39.36,6.71706 39.293,6.78256 C39.22,6.85286 39.023,6.97976 38.526,6.97976 L38.526,8.97976 Z M5.262,1.05204 C5.267,1.04773 5.247,1.06905 5.202,1.09371 C5.152,1.1205 5.093,1.14034 5.031,1.14783 L4.791,-0.8377 C4.381,-0.7881 4.066,-0.58508 3.833,-0.34721 L5.262,1.05204 Z M5.031,1.14783 C5.012,1.15017 4.994,1.15103 4.979,1.15103 L4.979,-0.84897 C4.918,-0.84897 4.855,-0.84545 4.791,-0.8377 L5.031,1.14783 Z M5.472,7.96146 C5.524,7.96146 5.589,7.97186 5.654,7.99916 L4.878,9.84276 C5.074,9.92486 5.274,9.96146 5.472,9.96146 L5.472,7.96146 Z M5.654,7.99916 C5.727,8.03006 5.76,8.06566 5.755,8.06046 L4.326,9.45976 C4.469,9.60506 4.649,9.74656 4.878,9.84276 L5.654,7.99916 Z M10.833,8.00586 C10.887,7.98656 10.937,7.97536 10.98,7.96896 L11.271,9.94766 C11.346,9.93666 11.426,9.91796 11.508,9.88866 L10.833,8.00586 Z M10.351,8.48756 C10.371,8.42706 10.413,8.33036 10.5,8.23156 C10.592,8.12746 10.709,8.05046 10.833,8.00586 L11.508,9.88866 C11.923,9.73986 12.153,9.41106 12.252,9.10816 L10.351,8.48756 Z M14.477,1.12459 C14.417,1.14059 14.348,1.15103 14.272,1.15103 L14.272,-0.84897 C14.163,-0.84897 14.061,-0.83399 13.966,-0.80909 L14.477,1.12459 Z M14.625,1.06903 C14.581,1.09099 14.531,1.11024 14.477,1.12459 L13.966,-0.80909 C13.882,-0.78677 13.802,-0.75607 13.729,-0.71927 L14.625,1.06903 Z M14.955,0.72628 C14.897,0.85962 14.787,0.98768 14.625,1.06902 L13.729,-0.71927 C13.455,-0.58203 13.242,-0.35019 13.121,-0.07179 L14.955,0.72628 Z M8.868,1.07697 C8.639,0.96954 8.516,0.78502 8.465,0.64675 L10.342,-0.04261 C10.245,-0.30841 10.046,-0.58008 9.716,-0.73428 L8.868,1.07697 Z M9.055,1.13773 C8.996,1.12641 8.932,1.10704 8.868,1.07697 L9.716,-0.73428 C9.621,-0.77888 9.524,-0.80887 9.429,-0.82693 L9.055,1.13773 Z M9.194,1.15103 C9.153,1.15103 9.106,1.14746 9.055,1.13773 L9.429,-0.82693 C9.348,-0.84248 9.269,-0.84897 9.194,-0.84897 L9.194,1.15103 Z M10.98,7.96896 C11.019,7.96326 11.052,7.96146 11.08,7.96146 L11.08,9.96146 C11.139,9.96146 11.203,9.95766 11.271,9.94766 L10.98,7.96896 Z M20.656,5.65696 C20.69,5.65696 20.723,5.65666 20.757,5.65626 L20.727,3.65646 C20.704,3.65676 20.68,3.65696 20.656,3.65696 L20.656,5.65696 Z M20.757,5.65626 C21.386,5.64686 21.992,5.54876 22.51,5.28396 L21.6,3.50296 C21.457,3.57596 21.191,3.64956 20.727,3.65646 L20.757,5.65626 Z M22.51,5.28396 C22.948,5.06046 23.303,4.72746 23.537,4.28366 C23.765,3.85246 23.849,3.37436 23.849,2.89486 L21.849,2.89486 C21.849,3.14804 21.804,3.28236 21.769,3.34886 C21.741,3.40266 21.699,3.45256 21.6,3.50296 L22.51,5.28396 Z M23.849,2.89486 C23.849,2.41532 23.765,1.93728 23.537,1.50606 C23.303,1.06228 22.948,0.72925 22.51,0.5058 L21.6,2.28677 C21.699,2.33715 21.741,2.38705 21.769,2.44092 C21.804,2.50735 21.849,2.64168 21.849,2.89486 L23.849,2.89486 Z M22.51,0.5058 C21.992,0.24094 21.386,0.14282 20.757,0.13351 L20.727,2.13329 C21.191,2.14016 21.457,2.21378 21.6,2.28677 L22.51,0.5058 Z M20.757,0.13351 C20.723,0.13301 20.69,0.13277 20.656,0.13277 L20.656,2.13277 C20.68,2.13277 20.704,2.13295 20.727,2.13329 L20.757,0.13351 Z M18.783,0.97793 C18.636,1.09762 18.462,1.15103 18.302,1.15103 L18.302,-0.84897 C18.025,-0.84897 17.748,-0.75822 17.521,-0.57391 L18.783,0.97793 Z M20.742,1.15103 C21.298,1.15103 21.74,1.24916 22.068,1.40177 L22.911,-0.41151 C22.265,-0.71214 21.524,-0.84897 20.742,-0.84897 L20.742,1.15103 Z M22.068,1.40177 C22.625,1.66108 22.959,2.119 22.959,2.89486 L24.959,2.89486 C24.959,1.36564 24.196,0.18617 22.911,-0.41151 L22.068,1.40177 Z M22.959,2.89486 C22.959,3.67076 22.625,4.12866 22.068,4.38796 L22.911,6.20126 C24.196,5.60356 24.959,4.42406 24.959,2.89486 L22.959,2.89486 Z M22.068,4.38796 C21.74,4.54056 21.298,4.63866 20.742,4.63866 L20.742,6.63866 C21.524,6.63866 22.265,6.50186 22.911,6.20126 L22.068,4.38796 Z M19.068,0.39017 C19.068,0.58963 18.981,0.81688 18.783,0.97793 L17.521,-0.57391 C17.218,-0.3274 17.068,0.03304 17.068,0.39017 L19.068,0.39017 Z M32.398,1.22693 C32.338,1.20484 32.206,1.14255 32.089,0.99429 L33.659,-0.24439 C33.485,-0.46451 33.268,-0.58314 33.094,-0.64796 L32.398,1.22693 Z M32.12,8.11286 C32.238,7.95956 32.374,7.89556 32.435,7.87306 L33.131,9.74786 C33.309,9.68196 33.529,9.56036 33.704,9.33356 L32.12,8.11286 Z M32.11,8.12556 C32.113,8.12206 32.116,8.11736 32.121,8.11196 L33.703,9.33446 C33.709,9.32676 33.715,9.31986 33.719,9.31396 L32.11,8.12556 Z M32.025,8.27176 C32.048,8.22096 32.076,8.17206 32.11,8.12646 L33.72,9.31306 C33.77,9.24466 33.813,9.17156 33.847,9.09496 L32.025,8.27176 Z M32.004,8.32166 C32.01,8.30626 32.017,8.28946 32.025,8.27146 L33.847,9.09516 C33.859,9.06856 33.87,9.04286 33.879,9.01846 L32.004,8.32166 Z M31.959,8.62216 C31.955,8.57656 31.952,8.46286 32.004,8.32136 L33.879,9.01876 C33.96,8.79986 33.965,8.59556 33.951,8.44496 L31.959,8.62216 Z M31.932,0.65169 C31.917,0.57146 31.919,0.50977 31.922,0.47777 L33.914,0.655 C33.924,0.55173 33.924,0.42545 33.898,0.28687 L31.932,0.65169 Z M31.941,0.69278 C31.937,0.67837 31.934,0.66457 31.932,0.65144 L33.898,0.28711 C33.894,0.26452 33.889,0.2414 33.884,0.21786 L31.941,0.69278 Z M32.063,0.96004 C32,0.8713 31.962,0.77833 31.941,0.69266 L33.884,0.21798 C33.85,0.07906 33.79,-0.06164 33.697,-0.19297 L32.063,0.96004 Z M32.088,0.99409 C32.079,0.98252 32.071,0.97124 32.063,0.96037 L33.697,-0.19329 C33.685,-0.20999 33.673,-0.22699 33.659,-0.24419 L32.088,0.99409 Z M38.526,8.97976 C38.584,8.97976 38.641,8.97876 38.699,8.97656 L38.624,6.97796 C38.593,6.97916 38.56,6.97976 38.526,6.97976 L38.526,8.97976 Z M38.699,8.97656 C38.908,8.96876 39.112,8.94646 39.31,8.90756 L38.923,6.94536 C38.84,6.96176 38.741,6.97366 38.624,6.97796 L38.699,8.97656 Z M39.31,8.90756 C39.962,8.77896 40.534,8.46746 40.93,7.94056 C41.318,7.42526 41.461,6.80556 41.461,6.19246 L39.461,6.19246 C39.461,6.50606 39.388,6.66336 39.332,6.73836 C39.284,6.80176 39.184,6.89386 38.923,6.94536 L39.31,8.90756 Z M41.461,6.19246 C41.461,5.57736 41.314,4.95486 40.921,4.43826 C40.52,3.91076 39.942,3.59836 39.28,3.47256 L38.907,5.43736 C39.174,5.48816 39.279,5.58276 39.329,5.64886 C39.388,5.72596 39.461,5.88396 39.461,6.19246 L41.461,6.19246 Z M39.28,3.47256 C39.093,3.43686 38.898,3.41596 38.699,3.40846 L38.624,5.40706 C38.733,5.41116 38.827,5.42216 38.907,5.43736 L39.28,3.47256 Z M38.699,3.40846 C38.642,3.40626 38.584,3.40526 38.526,3.40526 L38.526,5.40526 C38.56,5.40526 38.592,5.40586 38.624,5.40706 L38.699,3.40846 Z M36.757,8.16486 C36.81,8.21476 36.861,8.27866 36.902,8.35946 C36.942,8.43826 36.987,8.56226 36.987,8.72236 L34.987,8.72236 C34.987,9.14306 35.207,9.45306 35.386,9.62166 L36.757,8.16486 Z M38.661,4.42346 C38.82,4.42346 38.968,4.43526 39.103,4.45666 L39.415,2.48102 C39.171,2.44258 38.919,2.42349 38.661,2.42349 L38.661,4.42346 Z M39.103,4.45666 C39.608,4.53616 39.96,4.74826 40.187,5.01596 C40.415,5.28436 40.57,5.67146 40.57,6.19246 L42.57,6.19246 C42.57,5.25826 42.284,4.39596 41.713,3.72256 C41.141,3.04851 40.337,2.62638 39.415,2.48102 L39.103,4.45666 Z M40.57,6.19246 C40.57,6.70996 40.417,7.09506 40.192,7.36306 C39.968,7.63016 39.622,7.84206 39.125,7.92476 L39.454,9.89756 C40.367,9.74536 41.161,9.32036 41.725,8.64806 C42.288,7.97656 42.57,7.11986 42.57,6.19246 L40.57,6.19246 Z M39.125,7.92476 C38.984,7.94836 38.829,7.96146 38.661,7.96146 L38.661,9.96146 C38.933,9.96146 39.198,9.94026 39.454,9.89756 L39.125,7.92476 Z M36.221,7.96146 C36.37,7.96146 36.489,8.00006 36.568,8.03716 C36.648,8.07486 36.71,8.12086 36.757,8.16486 L35.386,9.62166 C35.547,9.77256 35.834,9.96146 36.221,9.96146 L36.221,7.96146 Z M-13.643,-5.78284 L-13.643,16.12146 L-11.643,16.12146 L-11.643,-5.78284 L-13.643,-5.78284 Z M-10.643,-5.78284 C-10.643,-6.88741 -11.539,-7.78284 -12.643,-7.78284 L-12.643,-5.78284 L-10.643,-5.78284 Z M-10.643,16.12146 L-10.643,-5.78284 L-12.643,-5.78284 L-12.643,16.12146 L-10.643,16.12146 Z M-12.643,18.12146 C-11.539,18.12146 -10.643,17.22606 -10.643,16.12146 L-12.643,16.12146 L-12.643,18.12146 Z M-14.643,16.12146 C-14.643,17.22606 -13.748,18.12146 -12.643,18.12146 L-12.643,16.12146 L-14.643,16.12146 Z M-14.643,-5.78284 L-14.643,16.12146 L-12.643,16.12146 L-12.643,-5.78284 L-14.643,-5.78284 Z M-12.643,-7.78284 C-13.748,-7.78284 -14.643,-6.88741 -14.643,-5.78284 L-12.643,-5.78284 L-12.643,-7.78284 Z M-32.5978,-1.53599 L-32.5978,9.87956 L-30.5978,9.87956 L-30.5978,-1.53599 L-32.5978,-1.53599 Z M-31.5978,8.87956 L-39.5156,8.87956 L-39.5156,10.87956 L-31.5978,10.87956 L-31.5978,8.87956 Z M-39.5156,8.87956 C-40.012,8.87956 -40.2055,8.75256 -40.2854,8.66976 C-40.3716,8.58056 -40.5028,8.35946 -40.5028,7.81986 L-42.5028,7.81986 C-42.5028,8.65286 -42.3011,9.46166 -41.724,10.05916 C-41.1408,10.66306 -40.3406,10.87956 -39.5156,10.87956 L-39.5156,8.87956 Z M-40.5028,7.81986 L-40.5028,-1.53599 L-42.5028,-1.53599 L-42.5028,7.81986 L-40.5028,7.81986 Z M-40.5028,-1.53599 C-40.5028,-2.35812 -40.6977,-3.15921 -41.2855,-3.74303 C-41.8721,-4.32567 -42.667,-4.50993 -43.4589,-4.50993 L-43.4589,-2.50993 C-42.9424,-2.50993 -42.7593,-2.38799 -42.6949,-2.32405 C-42.6317,-2.26128 -42.5028,-2.0754 -42.5028,-1.53599 L-40.5028,-1.53599 Z M-43.4589,-4.50993 C-44.259,-4.50993 -45.0493,-4.31326 -45.6298,-3.72768 C-46.2086,-3.1438 -46.4045,-2.34884 -46.4045,-1.53599 L-44.4045,-1.53599 C-44.4045,-2.05835 -44.2781,-2.25036 -44.2094,-2.31965 C-44.1424,-2.38724 -43.96,-2.50993 -43.4589,-2.50993 L-43.4589,-4.50993 Z M-46.4045,-1.53599 L-46.4045,7.73406 L-44.4045,7.73406 L-44.4045,-1.53599 L-46.4045,-1.53599 Z M-46.4045,7.73406 C-46.4045,9.93326 -45.8756,11.76616 -44.6549,13.04806 C-43.4257,14.33886 -41.6576,14.90136 -39.5491,14.90136 L-39.5491,12.90136 C-41.3178,12.90136 -42.4774,12.43446 -43.2065,11.66876 C-43.9443,10.89406 -44.4045,9.64326 -44.4045,7.73406 L-46.4045,7.73406 Z M-39.5491,14.90136 C-35.971,14.90136 -31.9766,13.73586 -31.1803,13.44256 L-31.8715,11.56576 C-32.5373,11.81096 -36.2874,12.90136 -39.5491,12.90136 L-39.5491,14.90136 Z M-32.5088,12.68856 C-32.3871,13.33726 -32.0893,13.93256 -31.5439,14.35156 C-31.0095,14.76206 -30.3532,14.91416 -29.68,14.91416 L-29.68,12.91416 C-30.0661,12.91416 -30.2454,12.82706 -30.3254,12.76556 C-30.3945,12.71256 -30.4899,12.60286 -30.5431,12.31976 L-32.5088,12.68856 Z M-29.68,14.91416 C-29.5853,14.91416 -29.5018,14.90096 -29.4327,14.88366 C-29.3646,14.86656 -29.309,14.84516 -29.2685,14.82736 C-29.2282,14.80966 -29.1968,14.79276 -29.178,14.78226 C-29.1682,14.77676 -29.1602,14.77206 -29.1549,14.76896 C-29.1499,14.76596 -29.1457,14.76346 -29.1448,14.76286 C-29.1428,14.76166 -29.1451,14.76306 -29.1473,14.76436 C-29.15,14.76596 -29.1556,14.76926 -29.1628,14.77346 C-29.1701,14.77756 -29.1803,14.78326 -29.1927,14.78976 C-29.2052,14.79626 -29.2209,14.80416 -29.2393,14.81256 C-29.2754,14.82896 -29.3283,14.85046 -29.3949,14.86806 C-29.4625,14.88586 -29.5474,14.90056 -29.6457,14.90056 L-29.6457,12.90056 C-29.7468,12.90056 -29.8346,12.91566 -29.905,12.93416 C-29.9744,12.95246 -30.0301,12.97506 -30.069,12.99276 C-30.0888,13.00186 -30.106,13.01036 -30.1198,13.01766 C-30.1336,13.02486 -30.1452,13.03126 -30.1539,13.03626 C-30.1625,13.04116 -30.1695,13.04536 -30.1736,13.04776 C-30.1757,13.04906 -30.1774,13.05006 -30.1785,13.05076 C-30.179,13.05106 -30.1795,13.05136 -30.1798,13.05146 C-30.1804,13.05186 -30.1799,13.05156 -30.1802,13.05176 C-30.1808,13.05206 -30.178,13.05046 -30.1744,13.04826 C-30.1705,13.04596 -30.1639,13.04206 -30.1556,13.03746 C-30.1396,13.02846 -30.111,13.01306 -30.0737,12.99666 C-30.0361,12.98006 -29.9834,12.95976 -29.9182,12.94346 C-29.8521,12.92696 -29.7716,12.91416 -29.68,12.91416 L-29.68,14.91416 Z M-30.6457,13.90056 L-30.6457,13.91416 L-28.6457,13.91416 L-28.6457,13.90056 L-30.6457,13.90056 Z M-29.6457,14.91416 C-28.8328,14.91416 -28.0359,14.70766 -27.4554,14.10476 C-26.8821,13.50926 -26.6904,12.70286 -26.6904,11.87816 L-28.6904,11.87816 C-28.6904,12.42696 -28.82,12.63846 -28.8962,12.71756 C-28.9652,12.78936 -29.146,12.91416 -29.6457,12.91416 L-29.6457,14.91416 Z M-26.6904,11.87816 L-26.6904,-1.53599 L-28.6904,-1.53599 L-28.6904,11.87816 L-26.6904,11.87816 Z M-26.6904,-1.53599 C-26.6904,-2.50745 -26.9827,-3.32182 -27.6274,-3.86613 C-28.2395,-4.38287 -29.0008,-4.50993 -29.6326,-4.50993 L-29.6326,-2.50993 C-29.2272,-2.50993 -29.0173,-2.4221 -28.9176,-2.33791 C-28.8505,-2.28129 -28.6904,-2.10869 -28.6904,-1.53599 L-26.6904,-1.53599 Z M-29.6229,-4.50988 C-30.437,-4.51779 -31.233,-4.3172 -31.8169,-3.72932 C-32.3978,-3.14451 -32.5978,-2.34804 -32.5978,-1.53599 L-30.5978,-1.53599 C-30.5978,-2.04896 -30.4715,-2.24582 -30.3979,-2.31992 C-30.3274,-2.39095 -30.1408,-2.51482 -29.6423,-2.50998 L-29.6229,-4.50988 Z M-51.0164,-4.51011 C-51.8277,-4.51011 -52.6203,-4.31011 -53.2052,-3.72933 C-53.7895,-3.14919 -53.9962,-2.35804 -54.0047,-1.54675 L-52.0048,-1.52579 C-51.9994,-2.0386 -51.8723,-2.23438 -51.796,-2.31013 C-51.7203,-2.38525 -51.5257,-2.51011 -51.0164,-2.51011 L-51.0164,-4.51011 Z M-54.0047,-1.53627 L-54.0047,9.87876 L-52.0047,9.87876 L-52.0047,-1.53627 L-54.0047,-1.53627 Z M-53.0047,8.87876 L-60.9141,8.87876 L-60.9141,10.87876 L-53.0047,10.87876 L-53.0047,8.87876 Z M-60.9141,8.87876 C-61.4118,8.87876 -61.6058,8.75146 -61.6859,8.66856 C-61.7721,8.57936 -61.9033,8.35856 -61.9033,7.81906 L-63.9033,7.81906 C-63.9033,8.65216 -63.7015,9.46116 -63.1239,10.05866 C-62.5402,10.66236 -61.7397,10.87876 -60.9141,10.87876 L-60.9141,8.87876 Z M-61.9033,7.81906 L-61.9033,-1.53542 L-63.9033,-1.53542 L-63.9033,7.81906 L-61.9033,7.81906 Z M-61.9033,-1.53542 C-61.9033,-2.36084 -62.102,-3.16061 -62.6892,-3.74295 C-63.275,-4.32382 -64.067,-4.50926 -64.855,-4.50926 L-64.855,-2.50926 C-64.3475,-2.50926 -64.1638,-2.38852 -64.0975,-2.32284 C-64.0328,-2.25863 -63.9033,-2.07148 -63.9033,-1.53542 L-61.9033,-1.53542 Z M-64.855,-4.50926 C-65.6548,-4.50926 -66.4453,-4.31258 -67.0273,-3.7295 C-67.609,-3.14679 -67.8091,-2.35185 -67.8091,-1.53542 L-65.8091,-1.53542 C-65.8091,-2.05414 -65.6822,-2.24612 -65.6119,-2.31654 C-65.5419,-2.3866 -65.3554,-2.50926 -64.855,-2.50926 L-64.855,-4.50926 Z M-67.8091,-1.53542 L-67.8091,7.73416 L-65.8091,7.73416 L-65.8091,-1.53542 L-67.8091,-1.53542 Z M-67.8091,7.73416 C-67.8091,9.93306 -67.2808,11.76596 -66.0597,13.04796 C-64.8301,14.33886 -63.061,14.90116 -60.9501,14.90116 L-60.9501,12.90116 C-62.722,12.90116 -63.8823,12.43406 -64.6115,11.66856 C-65.3493,10.89406 -65.8091,9.64346 -65.8091,7.73416 L-67.8091,7.73416 Z M-60.9501,14.90116 C-57.385,14.90116 -53.3902,13.73576 -52.5973,13.44156 L-53.293,11.56646 C-53.9513,11.81066 -57.7011,12.90116 -60.9501,12.90116 L-60.9501,14.90116 Z M-53.9275,12.69076 C-53.8004,13.35966 -53.4821,13.95786 -52.924,14.37136 C-52.3791,14.77506 -51.7147,14.92196 -51.0378,14.91386 L-51.0618,12.91396 C-51.4477,12.91856 -51.6412,12.83266 -51.7334,12.76436 C-51.8123,12.70596 -51.9103,12.59286 -51.9627,12.31716 L-53.9275,12.69076 Z M-51.0498,14.91386 C-50.2415,14.91386 -49.4525,14.70626 -48.8737,14.11946 C-48.2974,13.53516 -48.0949,12.74216 -48.0949,11.92816 L-50.0949,11.92816 C-50.0949,12.43736 -50.221,12.63726 -50.2976,12.71506 C-50.3719,12.79026 -50.5603,12.91386 -51.0498,12.91386 L-51.0498,14.91386 Z M-48.0949,11.92816 L-48.0949,-1.52438 L-50.0949,-1.52438 L-50.0949,11.92816 L-48.0949,11.92816 Z M-48.0949,-1.52438 C-48.0949,-2.42919 -48.3433,-3.23432 -48.9513,-3.79787 C-49.5451,-4.34813 -50.3134,-4.51011 -51.0164,-4.51011 L-51.0164,-2.51011 C-50.5872,-2.51011 -50.3948,-2.4088 -50.3108,-2.33099 C-50.2412,-2.26646 -50.0949,-2.07871 -50.0949,-1.52438 L-48.0949,-1.52438 Z M-75.1899,6.68836 C-75.1899,7.04906 -75.3706,7.48406 -75.7091,7.84296 C-76.0513,8.20586 -76.4363,8.36866 -76.7179,8.36866 L-76.7179,10.36866 C-75.7398,10.36866 -74.8609,9.85876 -74.254,9.21516 C-73.6434,8.56766 -73.1899,7.66246 -73.1899,6.68836 L-75.1899,6.68836 Z M-76.7179,8.36866 L-83.7851,8.36866 L-83.7851,10.36866 L-76.7179,10.36866 L-76.7179,8.36866 Z M-82.7851,9.36866 L-82.7851,0.27777 L-84.7851,0.27777 L-84.7851,9.36866 L-82.7851,9.36866 Z M-83.7851,1.27777 L-76.7179,1.27777 L-76.7179,-0.72223 L-83.7851,-0.72223 L-83.7851,1.27777 Z M-76.7179,1.27777 C-76.4257,1.27777 -76.0366,1.44181 -75.6956,1.78958 C-75.3547,2.1373 -75.1899,2.53893 -75.1899,2.8392 L-73.1899,2.8392 C-73.1899,1.88888 -73.6593,1.0098 -74.2675,0.38945 C-74.8756,-0.23085 -75.7505,-0.72223 -76.7179,-0.72223 L-76.7179,1.27777 Z M-75.1899,2.8392 L-75.1899,6.68836 L-73.1899,6.68836 L-73.1899,2.8392 L-75.1899,2.8392 Z M-76.2508,-4.51011 C-78.3041,-4.51011 -80.2476,-4.14309 -81.6656,-3.78276 C-82.3778,-3.60178 -82.965,-3.42052 -83.3767,-3.28355 C-83.5828,-3.21501 -83.7453,-3.15741 -83.858,-3.11627 C-83.9144,-3.0957 -83.9584,-3.07923 -83.9891,-3.06755 C-84.0045,-3.06171 -84.0166,-3.05707 -84.0253,-3.05371 C-84.0296,-3.05203 -84.0331,-3.05066 -84.0358,-3.04964 C-84.0371,-3.04912 -84.0382,-3.04869 -84.0391,-3.04834 C-84.0395,-3.04817 -84.0399,-3.04801 -84.0403,-3.04788 C-84.0404,-3.04782 -84.0406,-3.04773 -84.0407093,-3.0477 C-84.0409,-3.04762 -84.0411,-3.04755 -83.6749,-2.11701 C-83.3087,-1.18646 -83.3089,-1.1864 -83.309,-1.18634 C-83.3091,-1.18633 -83.3092,-1.18628 -83.3093,-1.18626 C-83.3094,-1.18617906 -83.3094,-1.18617906 -83.3095,-1.18617906 C-83.3095,-1.18617906 -83.3093,-1.18624 -83.3089,-1.1864 C-83.3081,-1.18671 -83.3065,-1.18734 -83.304,-1.1883 C-83.2991,-1.19021 -83.2908,-1.19339 -83.2793,-1.19775 C-83.2563,-1.20648 -83.2204,-1.21994 -83.1724,-1.23746 C-83.0764,-1.27251 -82.932,-1.32374 -82.7454,-1.38581 C-82.372,-1.51005 -81.8314,-1.67706 -81.173,-1.84436 C-79.8499,-2.18059 -78.0814,-2.51011 -76.2508,-2.51011 L-76.2508,-4.51011 Z M-83.6749,-2.11701 C-82.7861,-2.57517 -82.7862,-2.57546 -82.7863941,-2.57576 C-82.7863941,-2.57587 -82.7866,-2.57617 -82.7867,-2.57639 C-82.7869,-2.57682 -82.7871,-2.57727 -82.7874,-2.57774 C-82.7879,-2.57869 -82.7884,-2.57972 -82.789,-2.58084 C-82.7902,-2.58308 -82.7915,-2.58567 -82.7931,-2.5886 C-82.7962,-2.59445 -82.8,-2.60166 -82.8046,-2.61013 C-82.8138,-2.62706 -82.8261,-2.64913 -82.8413,-2.6756 C-82.8717,-2.7284 -82.9144,-2.79948 -82.969,-2.8828 C-83.0769,-3.04753 -83.2379,-3.27006 -83.4497,-3.49657 C-83.8494,-3.92399 -84.5683,-4.51011 -85.5623,-4.51011 L-85.5623,-2.51011 C-85.387,-2.51011 -85.1622,-2.39968 -84.9105,-2.13054 C-84.7967,-2.00878 -84.705,-1.88304 -84.6418,-1.78656 C-84.6108,-1.73928 -84.5883,-1.70152 -84.5748,-1.67813 C-84.5681,-1.66651 -84.5638,-1.65864 -84.5619,-1.65517 C-84.561,-1.65344 -84.5607,-1.65283 -84.561,-1.65341 C-84.5611,-1.6537 -84.5614,-1.65429 -84.5619,-1.65519 C-84.5621,-1.65564 -84.5624,-1.65617 -84.5627,-1.65678 C-84.5629,-1.65708 -84.563,-1.65741 -84.5632,-1.65775 C-84.5633,-1.65792 -84.5635,-1.6582 -84.5635,-1.65828 C-84.5636,-1.65856 -84.5638,-1.65884 -83.6749,-2.11701 Z M-85.5623,-4.51011 C-86.3053,-4.51011 -87.0737,-4.32571 -87.6552,-3.76674 C-88.2441,-3.20069 -88.4755,-2.41094 -88.4755,-1.55502 L-86.4755,-1.55502 C-86.4755,-2.06767 -86.3414,-2.25547 -86.2693,-2.32482 C-86.1898,-2.40125 -86.0015,-2.51011 -85.5623,-2.51011 L-85.5623,-4.51011 Z M-88.4755,-1.55502 L-88.4755,17.22566 L-86.4755,17.22566 L-86.4755,-1.55502 L-88.4755,-1.55502 Z M-88.4755,17.22566 C-88.4755,18.03966 -88.2769,18.83306 -87.7059,19.41876 C-87.1303,20.00916 -86.3441,20.21716 -85.5405,20.21716 L-85.5405,18.21716 C-86.0218,18.21716 -86.2031,18.09516 -86.2738,18.02256 C-86.3491,17.94536 -86.4755,17.74306 -86.4755,17.22566 L-88.4755,17.22566 Z M-85.5405,20.21716 C-84.7269,20.21716 -83.938,19.99766 -83.3649,19.39346 C-82.8009,18.79896 -82.6046,17.99796 -82.6046,17.17576 L-84.6046,17.17576 C-84.6046,17.71026 -84.7333,17.92996 -84.8159,18.01696 C-84.8892,18.09426 -85.0683,18.21716 -85.5405,18.21716 L-85.5405,20.21716 Z M-82.6046,17.17576 L-82.6046,12.43526 L-84.6046,12.43526 L-84.6046,17.17576 L-82.6046,17.17576 Z M-84.0089,13.34996 C-82.1725,14.16166 -78.6423,14.84026 -76.2289,14.84026 L-76.2289,12.84026 C-78.4168,12.84026 -81.663,12.20016 -83.2003,11.52066 L-84.0089,13.34996 Z M-76.2289,14.84026 C-74.1047,14.84026 -72.2208,14.05876 -70.87,12.65246 C-69.5209,11.24806 -68.7614,9.28196 -68.7614,7.01016 L-70.7614,7.01016 C-70.7614,8.83046 -71.3637,10.27946 -72.3123,11.26696 C-73.2593,12.25276 -74.6091,12.84026 -76.2289,12.84026 L-76.2289,14.84026 Z M-68.7614,7.01016 L-68.7614,3.19813 L-70.7614,3.19813 L-70.7614,7.01016 L-68.7614,7.01016 Z M-68.7613998,3.19833 C-68.761,0.96899 -69.4878,-0.97091 -70.8321,-2.35921 C-72.1792,-3.75025 -74.0718,-4.51011 -76.2508,-4.51011 L-76.2508,-2.51011 C-74.549,-2.51011 -73.1966,-1.92596 -72.2689,-0.96792 C-71.3386,-0.00716 -70.761,1.40706 -70.7614,3.19793 L-68.7613998,3.19833 Z M-95.8564,7.36706 C-95.8564,7.88156 -95.984,8.08126 -96.0633,8.16026 C-96.1433,8.23996 -96.3468,8.36866 -96.8688,8.36866 L-96.8688,10.36866 C-96.044,10.36866 -95.2412,10.16436 -94.6518,9.57716 C-94.0616,8.98926 -93.8564,8.18816 -93.8564,7.36706 L-95.8564,7.36706 Z M-96.8688,8.36866 L-101.4992,8.36866 L-101.4992,10.36866 L-96.8688,10.36866 L-96.8688,8.36866 Z M-100.4992,9.36866 L-100.4992,0.27777 L-102.4992,0.27777 L-102.4992,9.36866 L-100.4992,9.36866 Z M-101.4992,1.27777 L-96.8688,1.27777 L-96.8688,-0.72223 L-101.4992,-0.72223 L-101.4992,1.27777 Z M-96.8688,1.27777 C-96.334,1.27777 -96.1227,1.40438 -96.0438,1.4788 C-95.9759,1.54282 -95.8564,1.70889 -95.8564,2.17288 L-93.8564,2.17288 C-93.8564,1.37318 -94.0697,0.5917 -94.6713,0.02408 C-95.2619,-0.53313 -96.0568,-0.72223 -96.8688,-0.72223 L-96.8688,1.27777 Z M-95.8564,2.17288 L-95.8564,7.36706 L-93.8564,7.36706 L-93.8564,2.17288 L-95.8564,2.17288 Z M-110.56163,8.36866 C-111.07371,8.36866 -111.27838,8.24126 -111.36098,8.15926 C-111.44237,8.07836 -111.57056,7.87736 -111.57056,7.36706 L-113.57056,7.36706 C-113.57056,8.19236 -113.36047,8.99206 -112.77049,9.57816 C-112.18172,10.16306 -111.38193,10.36866 -110.56163,10.36866 L-110.56163,8.36866 Z M-111.57056,7.36706 L-111.57056,2.17288 L-113.57056,2.17288 L-113.57056,7.36706 L-111.57056,7.36706 Z M-111.57056,2.17288 C-111.57056,1.71325 -111.45063,1.54574 -111.38051,1.47977 C-111.29906,1.40314 -111.08656,1.27777 -110.56163,1.27777 L-110.56163,-0.72223 C-111.36908,-0.72223 -112.16104,-0.5319 -112.75096,0.02311 C-113.3522,0.58877 -113.57056,1.36881 -113.57056,2.17288 L-111.57056,2.17288 Z M-110.56163,1.27777 L-105.9278,1.27777 L-105.9278,-0.72223 L-110.56163,-0.72223 L-110.56163,1.27777 Z M-106.92776,0.27777 L-106.92776,9.36866 L-104.9278,9.36866 L-104.9278,0.27777 L-106.92776,0.27777 Z M-105.9278,8.36866 L-110.56163,8.36866 L-110.56163,10.36866 L-105.9278,10.36866 L-105.9278,8.36866 Z M-103.7123,-6.78284 C-104.5297,-6.78284 -105.3282,-6.578122 -105.9123,-5.984658 C-106.49349,-5.3942 -106.69128,-4.59237 -106.69128,-3.77291 L-104.6913,-3.77291 C-104.6913,-4.3009 -104.5634,-4.50404 -104.4869,-4.58168 C-104.4135,-4.65632 -104.2224,-4.78284 -103.7123,-4.78284 L-103.7123,-6.78284 Z M-106.69128,-3.77291 L-106.69128,-1.78797 L-104.6913,-1.78797 L-104.6913,-3.77291 L-106.69128,-3.77291 Z M-105.0619,-2.56505 C-105.395,-2.83484 -105.8317,-3.05516 -106.2556,-3.23178 C-106.69429,-3.41461 -107.1848,-3.57722 -107.66919,-3.71232 C-108.61014,-3.97477 -109.64998,-4.16693 -110.3225,-4.15953 L-110.30051,-2.15965 C-109.9116,-2.16393 -109.0873,-2.03152 -108.2065,-1.78585 C-107.78001,-1.6669 -107.37023,-1.52957 -107.02488,-1.38566 C-106.66466,-1.23555 -106.43359,-1.10234 -106.32069,-1.0109 L-105.0619,-2.56505 Z M-110.32347,-4.15952 C-112.45208,-4.13404 -114.23385,-3.60315 -115.4774,-2.37339 C-116.725233,-1.13939 -117.261,0.62941 -117.261,2.75854 L-115.261,2.75854 C-115.261,0.94197 -114.80601,-0.22454 -114.07109,-0.95131 C-113.33189,-1.68232 -112.13891,-2.13765 -110.29954,-2.15967 L-110.32347,-4.15952 Z M-117.261,2.75854 L-117.261,7.87256 L-115.261,7.87256 L-115.261,2.75854 L-117.261,2.75854 Z M-117.261,7.87256 C-117.261,10.03546 -116.729516,11.86316 -115.4951,13.13636 C-114.25143,14.41916 -112.46057,14.96876 -110.31332,14.92296 L-110.35598,12.92336 C-112.15357,12.96176 -113.32588,12.50056 -114.05918,11.74426 C-114.80173,10.97836 -115.261,9.73866 -115.261,7.87256 L-117.261,7.87256 Z M-110.31417,14.92296 C-109.28549,14.90186 -108.18432,14.60756 -107.29208,14.29826 C-106.38704,13.98456 -105.6198,13.62806 -105.2332,13.42876 L-106.1494,11.65096 C-106.4629,11.81256 -107.14278,12.12976 -107.94708,12.40856 C-108.76417,12.69176 -109.63459,12.90866 -110.35513,12.92336 L-110.31417,14.92296 Z M-106.69128,12.53986 L-106.69128,17.25636 L-104.6913,17.25636 L-104.6913,12.53986 L-106.69128,12.53986 Z M-106.69128,17.25636 C-106.69128,18.06436 -106.48992,18.85666 -105.9041,19.43806 C-105.3196,20.01816 -104.5249,20.21716 -103.7123,20.21716 L-103.7123,18.21716 C-104.2272,18.21716 -104.422,18.09116 -104.4952,18.01856 C-104.5669,17.94736 -104.6913,17.75916 -104.6913,17.25636 L-106.69128,17.25636 Z M-103.7123,20.21716 C-102.9037,20.21716 -102.1115,20.01696 -101.527,19.44006 C-100.9401,18.86076 -100.7324,18.06986 -100.7324,17.25636 L-102.7324,17.25636 C-102.7324,17.75376 -102.8575,17.94316 -102.9319,18.01656 C-103.0087,18.09236 -103.2064,18.21716 -103.7123,18.21716 L-103.7123,20.21716 Z M-100.7324,17.25636 L-100.7324,12.53986 L-102.7324,12.53986 L-102.7324,17.25636 L-100.7324,17.25636 Z M-102.1729,13.43766 C-101.7526,13.64386 -100.9769,14.00896 -100.078,14.32396 C-99.1952,14.63336 -98.1145,14.92316 -97.1031,14.92316 L-97.1031,12.92316 C-97.7789,12.92316 -98.6085,12.71966 -99.4166,12.43656 C-100.2083,12.15906 -100.9037,11.83256 -101.2919,11.64216 L-102.1729,13.43766 Z M-97.1031,14.92316 C-94.9646,14.92316 -93.1786,14.37586 -91.9363,13.10926 C-90.6976,11.84626 -90.166,10.03716 -90.166,7.87256 L-92.166,7.87256 C-92.166,9.73776 -92.6239,10.95406 -93.3642,11.70886 C-94.101,12.46006 -95.2835,12.92316 -97.1031,12.92316 L-97.1031,14.92316 Z M-90.166,7.87256 L-90.166,2.75854 L-92.166,2.75854 L-92.166,7.87256 L-90.166,7.87256 Z M-90.166,2.75854 C-90.166,0.62858 -90.7042,-1.14278 -91.9544,-2.37781 C-93.2006,-3.60893 -94.9855,-4.13987 -97.117,-4.15955 L-97.1355,-2.15964 C-95.2965,-2.14266 -94.1013,-1.68738 -93.36,-0.95502 C-92.6226,-0.22657 -92.166,0.9428 -92.166,2.75854 L-90.166,2.75854 Z M-97.1181,-4.15956 C-98.744,-4.17278 -100.7114,-3.6504 -102.2803,-2.62505 L-101.1861,-0.95089 C-99.9576,-1.75382 -98.3787,-2.16974 -97.1344,-2.15963 L-97.1181,-4.15956 Z M-100.7332,-1.78797 L-100.7332,-3.83374 L-102.7332,-3.83374 L-102.7332,-1.78797 L-100.7332,-1.78797 Z M-100.733199,-3.8331 C-100.7327,-4.64311 -100.9412,-5.43143 -101.5286,-6.008665 C-102.1126,-6.582672 -102.9037,-6.78284 -103.7123,-6.78284 L-103.7123,-4.78284 C-103.2064,-4.78284 -103.0076,-4.65802 -102.9305,-4.58226 C-102.8567,-4.50972 -102.7329,-4.32349 -102.7332,-3.83437 L-100.733199,-3.8331 Z" id="Shape" fill="#4361EE" fill-rule="nonzero" mask="url(#mask-2)"></path> <mask id="mask-4" fill="white"> <use xlink:href="#path-3"></use> </mask> <g id="Shape"></g> <mask id="mask-6" fill="white"> <use xlink:href="#path-5"></use> </mask> <g id="Path"></g> <mask id="mask-8" fill="white"> <use xlink:href="#path-7"></use> </mask> <g id="Path"></g> <mask id="mask-10" fill="white"> <use xlink:href="#path-9"></use> </mask> <g id="Shape"></g> </g> </g> </g> </svg> 