<?xml version="1.0" encoding="UTF-8"?> <svg xmlns="http://www.w3.org/2000/svg" xmlns:xlink="http://www.w3.org/1999/xlink" width="500px" height="500px" viewBox="0 0 500 500"> <title>Group 6</title> <g id="Page-1" stroke="none" stroke-width="1" fill="none" fill-rule="evenodd"> <g id="Group-6"> <circle id="Oval-Copy" fill="#4361EE" cx="250" cy="250" r="250"></circle> <g id="Group-5" transform="translate(114.000000, 122.000000)" fill="#FFFFFF" fill-rule="nonzero"> <g id="Group-4"> <path d="M207.467171,250.288104 L61.0174118,250.288104 C57.5985945,250.288104 54.6702095,253.220611 54.6702095,256.644052 C54.6702095,260.06758 57.5986817,263 61.0174118,263 L207.467171,263 C210.885989,263 213.814374,260.067493 213.814374,256.644052 C213.814374,253.220524 210.885901,250.288104 207.467171,250.288104 Z" id="Path"></path> <path d="M40.5144455,66.484829 C49.2996876,66.484829 56.623919,59.1536482 56.623919,50.3531586 C56.623919,49.3745214 56.623919,47.9082678 56.1369823,46.9296306 L127.897364,46.9296306 L127.897364,229.755229 L85.4278059,229.755229 C82.0089886,229.755229 79.0806036,232.687736 79.0806036,236.111177 C79.0806036,239.534617 82.0090758,242.467125 85.4278059,242.467125 L183.060979,242.467125 C186.479796,242.467125 189.408181,239.534617 189.408181,236.111177 C189.408181,232.687736 186.479709,229.755229 183.060979,229.755229 L140.101511,229.755229 L140.101511,46.9296306 L211.861893,46.9296306 C211.861893,47.9082678 211.374956,49.3745214 211.374956,50.3531586 C211.374956,59.1505057 218.69605,66.484829 227.48443,66.484829 C236.269672,66.484829 243.593904,59.1536482 243.593904,50.3531586 C243.593904,42.0433406 237.246701,35.2000381 228.948056,34.7085808 L227.48382,34.7085808 L140.10213,34.7085808 L140.10213,6.35594798 C140.10213,2.93241994 137.173658,1.42304355e-14 133.754928,1.42304355e-14 C130.33611,1.42304355e-14 127.407725,2.93250723 127.407725,6.35594798 L127.407725,34.7085808 L40.5142014,34.7085808 L39.0499653,34.7085808 C30.7515815,35.1961885 24.4041177,42.0397616 24.4041177,50.3531586 C24.4041177,59.1505057 31.7286106,66.4822102 40.5135912,66.4822102 L40.5144455,66.484829 Z" id="Path"></path> <path d="M80.0558805,153.009243 L80.0558805,152.030606 L80.0558805,151.542998 L80.0558805,151.05539 C80.0558805,151.05539 80.0558805,150.567783 79.5689438,150.567783 L46.3754085,77.7299738 C45.3981178,75.285083 42.9565911,74.3064457 40.5184642,74.3064457 C38.0769375,74.3064457 35.6354107,75.7726994 34.6615198,77.7299738 L0,150.567783 L0,151.05539 L0,151.542998 L0,152.030606 L0,152.518214 C0,170.116399 17.0875487,184.29097 38.5633599,185.270393 L39.5406505,185.270393 L41.0048866,185.270393 L41.9821772,185.270393 C62.4816566,185.273802 80.0558805,170.607857 80.0558805,153.009671 L80.0558805,153.009243 Z M40.0280231,95.3245545 L63.4591129,147.140562 L15.1298205,147.140562 L40.0280231,95.3245545 Z" id="Shape"></path> <path d="M268,153.009243 L268,152.521635 L268,152.034028 L268,151.54642 L268,151.058812 L233.829,78.2210033 C232.851709,75.7761125 230.410182,74.7974753 227.972055,74.7974753 C225.530529,74.7974753 223.089002,76.2637289 222.115111,78.2210033 L187.944372,151.058812 L187.944372,151.54642 L187.944372,152.034028 L187.944372,152.521635 L187.944372,153.009243 C187.944372,170.607429 205.031921,184.782 226.507732,185.761422 L227.485023,185.761422 L228.949259,185.761422 L229.926549,185.761422 C250.912451,185.273815 268,170.608302 268,153.009243 L268,153.009243 Z M227.481972,95.3245545 L251.402971,147.140562 L203.560101,147.143972 L227.481972,95.3245545 Z" id="Shape"></path> </g> </g> </g> </g> </svg> 