<?xml version="1.0" encoding="UTF-8"?> <svg xmlns="http://www.w3.org/2000/svg" xmlns:xlink="http://www.w3.org/1999/xlink" width="13px" height="17px" viewBox="0 0 13 17"> <title>Phone</title> <g id="Page-1" stroke="none" stroke-width="1" fill="none" fill-rule="evenodd"> <g id="Phone" transform="translate(-0.000000, -0.000000)" fill="#4361EE"> <path d="M5.12800035,1.8569197 C4.56343035,0.622397705 4.51211035,-0.451098295 2.61311035,0.192999705 C1.84325035,0.461373705 1.43266035,0.998121705 0.970741348,1.5885397 C-0.671631652,3.4671597 -0.209713652,7.6001197 2.20252035,11.5720997 C4.66608035,15.4902997 8.10480035,17.6372997 10.4144003,16.8321997 C11.1329003,16.5637997 11.8001003,16.4564997 12.3134003,15.8123997 C13.6478003,14.2557997 12.7753003,13.7726997 11.9028003,12.7528997 C11.1329003,11.8403997 10.5170003,10.8742997 9.18261035,11.6793997 C8.97731035,11.9477997 7.84818035,13.1285997 7.28361035,13.0212997 C6.46243035,12.5918997 5.28197035,11.3573997 4.46078035,10.0154997 C3.69092035,8.7272897 3.02371035,7.0633797 3.02371035,6.1508997 C3.17768035,5.5604797 4.61476035,4.9700597 4.97403035,4.8627097 C6.20581035,3.8965597 5.64124035,2.9304097 5.12800035,1.8569197 Z" id="Path"></path> </g> </g> </svg> 