<?xml version="1.0" encoding="UTF-8"?> <svg xmlns="http://www.w3.org/2000/svg" xmlns:xlink="http://www.w3.org/1999/xlink" width="500px" height="500px" viewBox="0 0 500 500"> <title>Group 13</title> <g id="Page-1" stroke="none" stroke-width="1" fill="none" fill-rule="evenodd"> <g id="Group-13"> <circle id="Oval-Copy-6" fill="#4361EE" cx="250" cy="250" r="250"></circle> <g id="Group-12" transform="translate(120.000000, 106.000000)" fill-rule="nonzero" stroke="#FFFFFF" stroke-width="13.2657056"> <path d="M5.30883128,219.116967 C2.12501098,219.116967 0,221.770866 0,224.424766 L0,263.692202 C0,266.875402 2.65441564,269 5.30883128,269 L42.9926626,269 C46.1764829,269 48.3014938,266.346101 48.3014938,263.692202 L48.3014938,224.424766 C48.3014938,221.241565 45.6470782,219.116967 42.9926626,219.116967 L5.30883128,219.116967 Z" id="Path"></path> <path d="M73.7731935,193.116184 C70.5893732,193.116184 68.4643622,195.770083 68.4643622,198.423983 L68.4643622,263.690307 C68.4643622,266.873507 71.1187779,268.998105 73.7731935,268.998105 L111.457025,268.998105 C114.640845,268.998105 116.765856,266.344206 116.765856,263.690307 L116.762153,198.420192 C116.762153,195.236992 114.107738,193.112394 111.453322,193.112394 L73.7731935,193.116184 Z" id="Path"></path> <path d="M143.299019,160.747863 C140.115198,160.747863 137.990187,163.401762 137.990187,166.055661 L137.990187,263.691254 C137.990187,266.874455 140.644603,268.999052 143.299019,268.999052 L180.98285,268.999052 C184.16667,268.999052 186.291681,266.345153 186.291681,263.691254 L186.287979,166.055661 C186.287979,162.87246 183.633564,160.747863 180.979148,160.747863 L143.299019,160.747863 Z" id="Path"></path> <path d="M253.691169,117.236348 L216.007337,117.236348 C212.823517,117.236348 210.698506,119.890247 210.698506,122.544147 L210.698506,263.691254 C210.698506,266.874455 213.352922,268.999052 216.007337,268.999052 L253.691169,268.999052 C256.874989,268.999052 259,266.345153 259,263.691254 L259,122.544147 C259,119.360946 256.874989,117.236348 253.691169,117.236348 Z" id="Path"></path> <path d="M256.344826,75.7455137 L238.300903,2.51787119 C238.300903,1.45557244 237.238398,0.926270787 236.708993,0.396969133 C235.646488,-0.132323044 234.587678,-0.132323044 234.054577,0.396969133 L159.754064,26.9283803 C158.162154,27.4576725 157.632749,28.5199807 157.099649,30.1115811 C157.099649,31.7031816 157.629044,32.7654803 159.220963,33.294782 L180.448328,43.9063989 C162.934188,69.9081294 107.739061,140.480736 5.8376673,174.440942 C4.24575715,174.970234 3.18325166,177.094841 3.71635249,178.686442 C4.24574767,180.278042 5.8376673,181.340341 7.43327362,181.340341 L7.9626688,181.340341 C9.55457895,180.811049 159.751875,152.688312 226.624043,66.7246443 L252.098207,79.4606693 C253.160712,79.9899614 254.752622,79.9899614 255.815128,78.9313771 C255.815128,78.39838 256.344826,76.8030841 256.344826,75.7444808 L256.344826,75.7455137 Z" id="Path" stroke-linejoin="round"></path> </g> </g> </g> </svg> 