<?xml version="1.0" encoding="UTF-8"?> <svg xmlns="http://www.w3.org/2000/svg" xmlns:xlink="http://www.w3.org/1999/xlink" width="500px" height="500px" viewBox="0 0 500 500"> <title>Group</title> <g id="Page-1" stroke="none" stroke-width="1" fill="none" fill-rule="evenodd"> <g id="Group"> <circle id="Oval-Copy-3" fill="#4361EE" cx="250" cy="250" r="250"></circle> <path d="M306.00882,288.342618 L306.00882,255.479547 C319.223117,259.586697 321.04763,276.477028 321.04763,277.387446 L321.502204,280.584015 L336.541015,279.214965 L336.086441,275.563105 C335.174103,264.607933 327.426918,243.613713 306.008006,239.961445 L306.008006,226.726561 L290.969195,226.726561 L290.969195,240.420322 C281.855578,242.244663 273.196055,246.810201 268.183118,252.744789 C262.257762,259.589957 259.981758,268.262646 261.348597,277.390461 C263.627856,294.277613 281.401159,300.212038 291.427032,302.036134 L291.427032,328.054362 C276.842316,323.033452 276.388222,311.16721 276.388222,310.709148 L276.388222,307.512579 L261.349411,307.512579 L261.349411,310.709148 C261.349411,311.164431 261.349411,337.182177 291.427846,344.027835 L291.427846,359.548953 L306.466657,359.548953 L306.466657,344.486712 C311.479757,344.03143 319.680954,342.203902 326.519218,336.272575 C333.353739,330.337987 337,321.210334 337,310.713224 C336.087662,294.734045 316.947439,289.715743 306.009308,288.344003 L306.00882,288.342618 Z M321.04763,311.164194 C321.04763,317.554073 319.226128,322.119366 315.579948,325.312757 C313.30069,327.595567 309.654592,328.964617 305.554075,329.878376 L305.554075,303.860149 C314.667692,305.232377 321.047793,307.970478 321.047793,311.163787 L321.04763,311.164194 Z M275.930384,275.562535 C275.018046,270.541625 276.384958,265.975842 279.121981,262.782452 C282.313578,259.130592 287.323341,257.306251 290.51502,255.937283 L290.51502,286.518195 C284.589663,285.149145 276.84256,281.952576 275.930303,275.563024 L275.930384,275.562535 Z" id="Shape" stroke="#FFFFFF" stroke-width="2" fill="#FFFFFF" fill-rule="nonzero"></path> <polygon id="Path" stroke="#FFFFFF" stroke-width="2" fill="#FFFFFF" fill-rule="nonzero" points="196.179929 200.707763 255.878637 200.707763 255.878637 214.856325 196.179929 214.856325"></polygon> <polygon id="Path" stroke="#FFFFFF" stroke-width="2" fill="#FFFFFF" fill-rule="nonzero" points="195.724208 307.512742 230.358231 307.512742 230.358231 321.661305 195.724208 321.661305"></polygon> <polygon id="Path" stroke="#FFFFFF" stroke-width="2" fill="#FFFFFF" fill-rule="nonzero" points="195.724208 271.911082 239.475103 271.911082 239.475103 285.604843 195.724208 285.604843"></polygon> <polygon id="Path" stroke="#FFFFFF" stroke-width="2" fill="#FFFFFF" fill-rule="nonzero" points="196.179929 238.135149 245.852763 238.135149 245.852763 251.370033 196.179929 251.370033"></polygon> <path d="M264.993881,347.222286 L174.761017,347.222286 L174.761017,152.782452 L283.678464,152.782452 L283.678464,192.49118 L323.325424,192.49118 L323.325424,226.267929 L336.085627,226.264745 L336.085627,177.883817 L298.26074,140 L162,140 L162,360 L264.993067,360 L264.993881,347.222286 Z M293.705152,150.956725 L324.238495,181.537638 L293.705152,181.537638 L293.705152,150.956725 Z" id="Shape" stroke="#FFFFFF" stroke-width="2" fill="#FFFFFF" fill-rule="nonzero"></path> </g> </g> </svg> 